# Blender 3.3.1
# www.blender.org
o Torus
v -1.000000 0.000000 0.000000
v -0.750000 0.172467 0.000000
v -0.750000 -0.172467 0.000000
v -0.707106 0.000000 0.707107
v -0.530330 0.172467 0.530330
v -0.530330 -0.172467 0.530330
v 0.000000 0.000000 1.000000
v 0.000000 0.172467 0.750000
v 0.000000 -0.172467 0.750000
v 0.707107 0.000000 0.707106
v 0.530330 0.172467 0.530330
v 0.530330 -0.172467 0.530330
v 1.000000 0.000000 -0.000000
v 0.750000 0.172467 -0.000000
v 0.750000 -0.172467 -0.000000
v 0.707107 0.000000 -0.707107
v 0.530330 0.172467 -0.530330
v 0.530330 -0.172467 -0.530330
v 0.000000 0.000000 -1.000000
v 0.000000 0.172467 -0.750000
v 0.000000 -0.172467 -0.750000
v -0.707107 0.000000 -0.707107
v -0.530330 0.172467 -0.530330
v -0.530330 -0.172467 -0.530330
v -0.594935 -0.172467 0.000000
v -0.594935 0.172467 0.000000
v -0.420682 0.172467 0.420683
v -0.420682 -0.172467 0.420683
v 0.000000 0.172467 0.594935
v 0.000000 -0.172467 0.594935
v 0.420683 0.172467 0.420682
v 0.420683 -0.172467 0.420682
v 0.594935 0.172467 -0.000000
v 0.594935 -0.172467 -0.000000
v 0.420682 -0.172467 -0.420683
v 0.420682 0.172467 -0.420683
v 0.000000 0.172467 -0.594935
v 0.000000 -0.172467 -0.594935
v -0.420682 0.172467 -0.420683
v -0.420682 -0.172467 -0.420683
v 1.000000 0.000000 -0.000000
v 0.750000 0.172467 -0.000000
v 0.707107 0.000000 -0.707107
v 0.530330 0.172467 -0.530330
v 0.818579 0.161584 0.753280
v 0.641802 0.334052 0.576503
v 1.111472 0.161584 0.046173
v 0.861472 0.334052 0.046173
v 1.000000 0.000000 0.000000
v 0.750000 0.172467 0.000000
v 0.750000 -0.172467 0.000000
v 0.707106 0.000000 0.707107
v 0.530330 0.172467 0.530330
v 0.530330 -0.172467 0.530330
v -0.707107 0.000000 0.707106
v -0.530330 0.172467 0.530330
v -0.530330 -0.172467 0.530330
v -1.000000 0.000000 -0.000000
v -0.750000 0.172467 -0.000000
v -0.750000 -0.172467 -0.000000
v -0.707107 0.000000 -0.707107
v -0.530330 0.172467 -0.530330
v -0.530330 -0.172467 -0.530330
v 0.707107 0.000000 -0.707107
v 0.530330 0.172467 -0.530330
v 0.530330 -0.172467 -0.530330
v 0.594935 -0.172467 0.000000
v 0.594935 0.172467 0.000000
v 0.420682 0.172467 0.420683
v 0.420682 -0.172467 0.420683
v -0.420683 0.172467 0.420682
v -0.420683 -0.172467 0.420682
v -0.594935 0.172467 -0.000000
v -0.594935 -0.172467 -0.000000
v -0.420682 -0.172467 -0.420683
v -0.420682 0.172467 -0.420683
v 0.420682 0.172467 -0.420683
v 0.420682 -0.172467 -0.420683
v -1.000000 0.000000 -0.000000
v -0.750000 0.172467 -0.000000
v -0.707107 0.000000 -0.707107
v -0.530330 0.172467 -0.530330
v -0.818579 0.161584 0.753280
v -0.641802 0.334052 0.576503
v -1.111472 0.161584 0.046173
v -0.861472 0.334052 0.046173
vn -0.5528 0.8013 0.2290
vn -0.0000 -1.0000 -0.0000
vn -0.0000 1.0000 -0.0000
vn -0.5528 -0.8013 0.2290
vn -0.2290 0.8013 0.5528
vn -0.2290 -0.8013 0.5528
vn 0.2290 0.8013 0.5528
vn 0.2290 -0.8013 0.5528
vn -0.5964 0.1885 0.7803
vn 0.5528 -0.8013 0.2290
vn 0.5528 -0.8013 -0.2290
vn 0.2290 0.8013 -0.5528
vn 0.2290 -0.8013 -0.5528
vn -0.2290 0.8013 -0.5528
vn -0.2290 -0.8013 -0.5528
vn -0.5528 0.8013 -0.2290
vn -0.5528 -0.8013 -0.2290
vn 0.9239 -0.0000 -0.3827
vn -0.3827 -0.0000 0.9239
vn 0.3827 -0.0000 -0.9239
vn 0.3827 -0.0000 0.9239
vn -0.3827 -0.0000 -0.9239
vn 0.9239 -0.0000 0.3827
vn -0.9239 -0.0000 -0.3827
vn -0.9239 -0.0000 0.3827
vn 0.5528 0.8013 -0.2290
vn 0.5528 0.8013 0.2290
vn -0.7403 0.5983 -0.3066
vn 0.7403 -0.5983 0.3066
vn 0.1300 0.1885 -0.9734
vn 0.5964 0.1885 0.7803
vn 0.7403 0.5983 -0.3066
vn -0.7403 -0.5983 0.3066
vn -0.1300 0.1885 -0.9734
vt 0.500000 0.500000
vt 0.500000 0.750000
vt 0.500000 0.250000
vt 0.625000 0.500000
vt 0.625000 0.750000
vt 0.625000 0.250000
vt 0.750000 0.500000
vt 0.750000 0.750000
vt 0.750000 0.250000
vt 0.875000 0.500000
vt 0.875000 0.750000
vt 0.875000 0.250000
vt 0.000000 0.500000
vt 1.000000 0.500000
vt 0.000000 0.750000
vt 1.000000 0.750000
vt 1.000000 0.250000
vt 0.000000 0.250000
vt 0.125000 0.500000
vt 0.125000 0.750000
vt 0.125000 0.250000
vt 0.250000 0.500000
vt 0.250000 0.750000
vt 0.250000 0.250000
vt 0.375000 0.500000
vt 0.375000 0.750000
vt 0.375000 0.250000
vt 0.500000 0.094935
vt 0.500000 0.000000
vt 0.500000 0.905065
vt 0.625000 0.905065
vt 0.625000 0.000000
vt 0.625000 0.094935
vt 0.750000 0.905065
vt 0.750000 0.000000
vt 0.750000 0.094935
vt 0.875000 0.905065
vt 0.875000 0.000000
vt 0.875000 0.094935
vt 0.000000 0.905065
vt 0.000000 0.000000
vt 1.000000 0.905065
vt 1.000000 0.000000
vt 1.000000 0.094935
vt 0.000000 0.094935
vt 0.125000 0.094935
vt 0.125000 0.905065
vt 0.125000 0.000000
vt 0.250000 0.905065
vt 0.250000 0.000000
vt 0.250000 0.094935
vt 0.375000 0.000000
vt 0.375000 0.905065
vt 0.375000 0.094935
vt 0.000000 0.500000
vt 1.000000 0.500000
vt 1.000000 0.750000
vt 0.000000 0.750000
vt 0.125000 0.500000
vt 0.125000 0.750000
vt 0.875000 0.500000
vt 0.875000 0.750000
vt 1.000000 0.500000
vt 1.000000 0.750000
vt 0.500000 0.500000
vt 0.500000 0.750000
vt 0.500000 0.250000
vt 0.625000 0.500000
vt 0.625000 0.750000
vt 0.625000 0.250000
vt 0.875000 0.500000
vt 0.875000 0.750000
vt 0.875000 0.250000
vt 1.000000 0.500000
vt 0.000000 0.500000
vt 0.000000 0.750000
vt 1.000000 0.750000
vt 1.000000 0.250000
vt 0.000000 0.250000
vt 0.125000 0.500000
vt 0.125000 0.750000
vt 0.125000 0.250000
vt 0.375000 0.500000
vt 0.375000 0.750000
vt 0.375000 0.250000
vt 0.500000 0.094935
vt 0.500000 0.000000
vt 0.500000 0.905065
vt 0.625000 0.905065
vt 0.625000 0.000000
vt 0.625000 0.094935
vt 0.875000 0.905065
vt 0.875000 0.000000
vt 0.875000 0.094935
vt 0.000000 0.000000
vt 1.000000 0.905065
vt 0.000000 0.905065
vt 1.000000 0.000000
vt 1.000000 0.094935
vt 0.000000 0.094935
vt 0.125000 0.094935
vt 0.125000 0.905065
vt 0.125000 0.000000
vt 0.375000 0.000000
vt 0.375000 0.905065
vt 0.375000 0.094935
vt 0.000000 0.500000
vt 1.000000 0.500000
vt 0.000000 0.750000
vt 1.000000 0.750000
vt 0.125000 0.500000
vt 0.125000 0.750000
vt 0.875000 0.500000
vt 0.875000 0.750000
vt 1.000000 0.500000
vt 1.000000 0.750000
s 0
f 4/4/1 2/2/1 1/1/1
f 40/54/2 3/3/2 24/27/2
f 8/8/3 27/31/3 5/5/3
f 6/6/4 1/1/4 3/3/4
f 7/7/5 5/5/5 4/4/5
f 30/36/2 6/6/2 28/33/2
f 11/11/3 29/34/3 8/8/3
f 9/9/6 4/4/6 6/6/6
f 10/10/7 8/8/7 7/7/7
f 30/36/2 12/12/2 9/9/2
f 14/16/3 31/37/3 11/11/3
f 12/12/8 7/7/8 9/9/8
f 11/11/9 45/61/9 46/62/9
f 34/44/2 12/12/2 32/39/2
f 14/15/3 36/47/3 33/40/3
f 15/17/10 10/10/10 12/12/10
f 17/20/3 42/58/3 44/60/3
f 34/45/2 18/21/2 15/18/2
f 20/23/3 36/47/3 17/20/3
f 15/18/11 16/19/11 13/13/11
f 19/22/12 17/20/12 16/19/12
f 35/46/2 21/24/2 18/21/2
f 23/26/3 37/49/3 20/23/3
f 21/24/13 16/19/13 18/21/13
f 22/25/14 20/23/14 19/22/14
f 40/54/2 21/24/2 38/51/2
f 21/24/15 22/25/15 19/22/15
f 1/1/16 23/26/16 22/25/16
f 5/5/3 26/30/3 2/2/3
f 28/33/2 3/3/2 25/28/2
f 3/3/17 22/25/17 24/27/17
f 27/32/18 25/28/18 26/29/18
f 37/50/19 35/46/19 36/48/19
f 29/35/20 28/33/20 27/32/20
f 39/52/21 38/51/21 37/50/21
f 31/38/22 30/36/22 29/35/22
f 40/54/23 26/29/23 25/28/23
f 33/43/24 32/39/24 31/38/24
f 36/48/25 34/45/25 33/41/25
f 2/2/3 39/53/3 23/26/3
f 43/59/26 42/58/26 41/55/26
f 13/13/3 43/59/3 41/55/3
f 16/19/3 44/60/3 43/59/3
f 14/16/3 41/56/3 42/57/3
f 47/63/27 46/62/27 45/61/27
f 11/11/28 48/64/28 14/16/28
f 13/14/29 45/61/29 10/10/29
f 14/16/30 47/63/30 13/14/30
f 50/66/27 52/68/27 49/65/27
f 78/106/2 51/67/2 67/86/2
f 69/89/3 8/8/3 53/69/3
f 51/67/10 52/68/10 54/70/10
f 53/69/7 7/7/7 52/68/7
f 70/91/2 9/9/2 30/36/2
f 29/34/3 56/72/3 8/8/3
f 52/68/8 9/9/8 54/70/8
f 8/8/5 55/71/5 7/7/5
f 30/36/2 57/73/2 72/94/2
f 56/72/3 73/96/3 59/77/3
f 7/7/6 57/73/6 9/9/6
f 56/72/31 83/113/31 55/71/31
f 57/73/2 74/99/2 72/94/2
f 59/76/3 76/102/3 62/81/3
f 55/71/4 60/78/4 57/73/4
f 62/81/3 80/109/3 59/76/3
f 60/79/2 75/101/2 74/100/2
f 76/102/3 20/23/3 62/81/3
f 60/79/17 61/80/17 63/82/17
f 62/81/14 19/22/14 61/80/14
f 63/82/2 38/51/2 75/101/2
f 37/49/3 65/84/3 20/23/3
f 61/80/15 21/24/15 63/82/15
f 20/23/12 64/83/12 19/22/12
f 38/51/2 66/85/2 78/106/2
f 19/22/13 66/85/13 21/24/13
f 65/84/26 49/65/26 64/83/26
f 68/88/3 53/69/3 50/66/3
f 51/67/2 70/91/2 67/86/2
f 66/85/11 49/65/11 51/67/11
f 67/86/24 69/90/24 68/87/24
f 75/101/21 37/50/21 76/103/21
f 70/91/22 29/35/22 69/90/22
f 38/51/19 77/104/19 37/50/19
f 30/36/20 71/93/20 29/35/20
f 68/87/25 78/106/25 67/86/25
f 72/94/18 73/98/18 71/93/18
f 74/100/23 76/103/23 73/95/23
f 77/105/3 50/66/3 65/84/3
f 80/109/16 81/111/16 79/107/16
f 58/75/3 81/111/3 61/80/3
f 61/80/3 82/112/3 62/81/3
f 59/77/3 79/108/3 58/74/3
f 84/114/1 85/115/1 83/113/1
f 86/116/32 56/72/32 59/77/32
f 55/71/33 85/115/33 58/74/33
f 85/115/34 59/77/34 58/74/34
f 4/4/1 5/5/1 2/2/1
f 40/54/2 25/28/2 3/3/2
f 8/8/3 29/34/3 27/31/3
f 6/6/4 4/4/4 1/1/4
f 7/7/5 8/8/5 5/5/5
f 30/36/2 9/9/2 6/6/2
f 11/11/3 31/37/3 29/34/3
f 9/9/6 7/7/6 4/4/6
f 10/10/7 11/11/7 8/8/7
f 30/36/2 32/39/2 12/12/2
f 14/16/3 33/42/3 31/37/3
f 12/12/8 10/10/8 7/7/8
f 11/11/9 10/10/9 45/61/9
f 34/44/2 15/17/2 12/12/2
f 14/15/3 17/20/3 36/47/3
f 15/17/10 13/14/10 10/10/10
f 17/20/3 14/15/3 42/58/3
f 34/45/2 35/46/2 18/21/2
f 20/23/3 37/49/3 36/47/3
f 15/18/11 18/21/11 16/19/11
f 19/22/12 20/23/12 17/20/12
f 35/46/2 38/51/2 21/24/2
f 23/26/3 39/53/3 37/49/3
f 21/24/13 19/22/13 16/19/13
f 22/25/14 23/26/14 20/23/14
f 40/54/2 24/27/2 21/24/2
f 21/24/15 24/27/15 22/25/15
f 1/1/16 2/2/16 23/26/16
f 5/5/3 27/31/3 26/30/3
f 28/33/2 6/6/2 3/3/2
f 3/3/17 1/1/17 22/25/17
f 27/32/18 28/33/18 25/28/18
f 37/50/19 38/51/19 35/46/19
f 29/35/20 30/36/20 28/33/20
f 39/52/21 40/54/21 38/51/21
f 31/38/22 32/39/22 30/36/22
f 40/54/23 39/52/23 26/29/23
f 33/43/24 34/44/24 32/39/24
f 36/48/25 35/46/25 34/45/25
f 2/2/3 26/30/3 39/53/3
f 43/59/26 44/60/26 42/58/26
f 13/13/3 16/19/3 43/59/3
f 16/19/3 17/20/3 44/60/3
f 14/16/3 13/14/3 41/56/3
f 47/63/27 48/64/27 46/62/27
f 11/11/28 46/62/28 48/64/28
f 13/14/29 47/63/29 45/61/29
f 14/16/30 48/64/30 47/63/30
f 50/66/27 53/69/27 52/68/27
f 78/106/2 66/85/2 51/67/2
f 69/89/3 29/34/3 8/8/3
f 51/67/10 49/65/10 52/68/10
f 53/69/7 8/8/7 7/7/7
f 70/91/2 54/70/2 9/9/2
f 29/34/3 71/92/3 56/72/3
f 52/68/8 7/7/8 9/9/8
f 8/8/5 56/72/5 55/71/5
f 30/36/2 9/9/2 57/73/2
f 56/72/3 71/92/3 73/96/3
f 7/7/6 55/71/6 57/73/6
f 56/72/31 84/114/31 83/113/31
f 57/73/2 60/78/2 74/99/2
f 59/76/3 73/97/3 76/102/3
f 55/71/4 58/74/4 60/78/4
f 62/81/3 82/112/3 80/109/3
f 60/79/2 63/82/2 75/101/2
f 76/102/3 37/49/3 20/23/3
f 60/79/17 58/75/17 61/80/17
f 62/81/14 20/23/14 19/22/14
f 63/82/2 21/24/2 38/51/2
f 37/49/3 77/105/3 65/84/3
f 61/80/15 19/22/15 21/24/15
f 20/23/12 65/84/12 64/83/12
f 38/51/2 21/24/2 66/85/2
f 19/22/13 64/83/13 66/85/13
f 65/84/26 50/66/26 49/65/26
f 68/88/3 69/89/3 53/69/3
f 51/67/2 54/70/2 70/91/2
f 66/85/11 64/83/11 49/65/11
f 67/86/24 70/91/24 69/90/24
f 75/101/21 38/51/21 37/50/21
f 70/91/22 30/36/22 29/35/22
f 38/51/19 78/106/19 77/104/19
f 30/36/20 72/94/20 71/93/20
f 68/87/25 77/104/25 78/106/25
f 72/94/18 74/99/18 73/98/18
f 74/100/23 75/101/23 76/103/23
f 77/105/3 68/88/3 50/66/3
f 80/109/16 82/112/16 81/111/16
f 58/75/3 79/107/3 81/111/3
f 61/80/3 81/111/3 82/112/3
f 59/77/3 80/110/3 79/108/3
f 84/114/1 86/116/1 85/115/1
f 86/116/32 84/114/32 56/72/32
f 55/71/33 83/113/33 85/115/33
f 85/115/34 86/116/34 59/77/34
