# Blender 3.3.1
# www.blender.org
o Plane
v 0.250000 -0.062500 -0.000000
v -0.250000 -0.562500 0.000000
v -0.250000 0.437500 0.000000
v 0.250000 0.187500 -0.000000
v -0.250000 0.687500 0.000000
v -0.375000 -0.062500 0.000000
v 0.125000 -0.562500 -0.000000
v -0.125000 -0.062500 0.000000
v 0.375000 -0.562500 -0.000000
v 0.375000 0.437500 -0.000000
v 0.250000 0.562500 -0.000000
v 0.125000 0.687500 -0.000000
v -0.250000 0.062500 0.000000
v -0.375000 0.187500 0.000000
v 0.250000 -0.687500 -0.000000
v 0.250000 -0.437500 -0.000000
v -0.250000 -0.187500 0.000000
v -0.125000 0.562500 0.000000
v -0.375000 0.562500 0.000000
v -0.375000 -0.437500 0.000000
v 0.375000 0.062500 -0.000000
v 0.125000 0.062500 -0.000000
v -0.125000 -0.687500 0.000000
v 0.375000 -0.187500 -0.000000
vn -0.0000 -0.0000 1.0000
vt 0.050346 0.499166
vt 0.050585 0.219245
vt 0.049823 0.355662
vt 0.049937 0.073299
vt 0.050824 0.784402
vt 0.051302 0.646213
vt 0.050610 0.925548
vt 0.049823 0.355662
vt 0.049937 0.073299
vt 0.050346 0.499166
vt 0.050585 0.219245
vt 0.051302 0.646213
vt 0.051302 0.646213
vt 0.050610 0.925548
vt 0.050610 0.925548
vt 0.050824 0.784402
vt 0.050346 0.499166
vt 0.050824 0.784402
vt 0.049937 0.073299
vt 0.050585 0.219245
vt 0.049823 0.355662
vt 0.050610 0.925548
vt 0.050824 0.784402
vt 0.049823 0.355662
vt 0.051302 0.646213
vt 0.050346 0.499166
vt 0.049937 0.073299
vt 0.050585 0.219245
s 0
f 7/9/1 23/27/1 15/19/1
f 17/21/1 20/24/1 2/3/1
f 3/5/1 14/18/1 13/16/1
f 4/6/1 10/12/1 11/13/1
f 18/22/1 12/15/1 5/7/1
f 24/28/1 16/20/1 9/11/1
f 22/26/1 8/10/1 1/1/1
f 7/9/1 2/4/1 23/27/1
f 17/21/1 6/8/1 20/24/1
f 3/5/1 19/23/1 14/18/1
f 4/6/1 21/25/1 10/12/1
f 18/22/1 11/14/1 12/15/1
f 24/28/1 1/2/1 16/20/1
f 22/26/1 13/17/1 8/10/1
