# Blender 3.3.1
# www.blender.org
o Torus
v 1.130000 0.000000 0.000000
v 0.974767 0.374767 0.000000
v 0.600000 0.530000 0.000000
v 0.225233 0.374767 0.000000
v 0.070000 0.000000 0.000000
v 0.950616 0.000000 -0.610924
v 0.820026 0.374767 -0.526999
v 0.504752 0.530000 -0.324385
v 0.189478 0.374767 -0.121770
v 0.058888 0.000000 -0.037845
v 0.469419 0.000000 -1.027884
v 0.404933 0.374767 -0.886679
v 0.249249 0.530000 -0.545779
v 0.093565 0.374767 -0.204880
v 0.029079 0.000000 -0.063674
v -0.160816 0.000000 -1.118498
v -0.138724 0.374767 -0.964845
v -0.085389 0.530000 -0.593893
v -0.032054 0.374767 -0.222941
v -0.009962 0.000000 -0.069288
v -0.739993 0.000000 -0.853997
v -0.638336 0.374767 -0.736679
v -0.392916 0.530000 -0.453450
v -0.147497 0.374767 -0.170220
v -0.045840 0.000000 -0.052903
v -1.084227 0.000000 -0.318358
v -0.935282 0.374767 -0.274623
v -0.575696 0.530000 -0.169039
v -0.216110 0.374767 -0.063456
v -0.067165 0.000000 -0.019721
v -1.084227 0.000000 0.318358
v -0.935282 0.374767 0.274623
v -0.575696 0.530000 0.169039
v -0.216110 0.374767 0.063456
v -0.067165 0.000000 0.019721
v -0.739993 0.000000 0.853997
v -0.638337 0.374767 0.736679
v -0.392917 0.530000 0.453450
v -0.147497 0.374767 0.170220
v -0.045840 0.000000 0.052902
v -0.160816 0.000000 1.118498
v -0.138724 0.374767 0.964845
v -0.085389 0.530000 0.593893
v -0.032054 0.374767 0.222941
v -0.009962 0.000000 0.069288
v 0.469419 0.000000 1.027884
v 0.404933 0.374767 0.886679
v 0.249249 0.530000 0.545779
v 0.093565 0.374767 0.204880
v 0.029079 0.000000 0.063674
v 0.950616 0.000000 0.610924
v 0.820026 0.374767 0.526999
v 0.504752 0.530000 0.324385
v 0.189478 0.374767 0.121770
v 0.058888 0.000000 0.037845
vn 0.7772 0.3827 -0.4995
vn 0.7385 0.6742 -0.0000
vn 0.9239 0.3827 -0.0000
vn 0.0583 0.9976 -0.0375
vn 0.0693 0.9976 -0.0000
vn -0.6690 0.7433 -0.0000
vn -0.5628 0.7433 0.3617
vn -0.9239 0.3827 -0.0000
vn 0.3838 0.3827 -0.8404
vn 0.6213 0.6742 -0.3993
vn 0.3068 0.6742 -0.6718
vn 0.0288 0.9976 -0.0630
vn -0.2779 0.7433 0.6085
vn -0.7772 0.3827 0.4995
vn -0.1315 0.3827 -0.9145
vn -0.0099 0.9976 -0.0686
vn 0.0952 0.7433 0.6622
vn -0.3838 0.3827 0.8404
vn -0.6050 0.3827 -0.6982
vn -0.1051 0.6742 -0.7310
vn -0.4836 0.6742 -0.5582
vn 0.4381 0.7433 0.5056
vn 0.1315 0.3827 0.9145
vn -0.8865 0.3827 -0.2603
vn -0.7086 0.6742 -0.2081
vn -0.0454 0.9976 -0.0524
vn 0.6419 0.7433 0.1885
vn 0.6050 0.3827 0.6982
vn -0.7086 0.6742 0.2081
vn -0.0665 0.9976 0.0195
vn -0.0665 0.9976 -0.0195
vn 0.6419 0.7433 -0.1885
vn 0.8865 0.3827 0.2603
vn -0.6050 0.3827 0.6982
vn -0.8865 0.3827 0.2603
vn -0.4836 0.6742 0.5582
vn -0.0454 0.9976 0.0524
vn 0.6050 0.3827 -0.6982
vn 0.8865 0.3827 -0.2603
vn -0.1315 0.3827 0.9145
vn -0.1051 0.6742 0.7310
vn -0.0099 0.9976 0.0686
vn 0.4381 0.7433 -0.5056
vn 0.1315 0.3827 -0.9145
vn 0.3838 0.3827 0.8404
vn 0.3068 0.6742 0.6718
vn -0.2779 0.7433 -0.6085
vn 0.0952 0.7433 -0.6622
vn -0.3838 0.3827 -0.8404
vn 0.6213 0.6742 0.3993
vn 0.0288 0.9976 0.0630
vn 0.0583 0.9976 0.0375
vn -0.5628 0.7433 -0.3617
vn 0.7772 0.3827 0.4995
vn -0.7772 0.3827 -0.4995
vt 0.545455 0.500000
vt 0.545455 0.625000
vt 0.545455 0.750000
vt 0.545455 0.875000
vt 0.545455 1.000000
vt 0.636364 0.500000
vt 0.636364 0.625000
vt 0.636364 0.750000
vt 0.636364 0.875000
vt 0.636364 1.000000
vt 0.727273 0.500000
vt 0.727273 0.625000
vt 0.727273 0.750000
vt 0.727273 0.875000
vt 0.727273 1.000000
vt 0.818182 0.500000
vt 0.818182 0.625000
vt 0.818182 0.750000
vt 0.818182 0.875000
vt 0.818182 1.000000
vt 0.909091 0.500000
vt 0.909091 0.625000
vt 0.909091 0.750000
vt 0.909091 0.875000
vt 0.909091 1.000000
vt 1.000000 0.500000
vt 0.000000 0.500000
vt 1.000000 0.625000
vt 0.000000 0.625000
vt 0.000000 0.750000
vt 1.000000 0.750000
vt 1.000000 0.875000
vt 0.000000 0.875000
vt 1.000000 1.000000
vt 0.000000 1.000000
vt 0.090909 0.500000
vt 0.090909 0.625000
vt 0.090909 0.750000
vt 0.090909 0.875000
vt 0.090909 1.000000
vt 0.181818 0.500000
vt 0.181818 0.625000
vt 0.181818 0.750000
vt 0.181818 0.875000
vt 0.181818 1.000000
vt 0.272727 0.500000
vt 0.272727 0.625000
vt 0.272727 0.750000
vt 0.272727 0.875000
vt 0.272727 1.000000
vt 0.363636 0.500000
vt 0.363636 0.625000
vt 0.363636 0.750000
vt 0.363636 0.875000
vt 0.363636 1.000000
vt 0.454545 0.500000
vt 0.454545 0.625000
vt 0.454545 0.750000
vt 0.454545 0.875000
vt 0.454545 1.000000
s 1
f 6/6/1 2/2/2 1/1/3
f 2/2/2 8/8/4 3/3/5
f 8/8/4 4/4/6 3/3/5
f 9/9/7 5/5/8 4/4/6
f 11/11/9 7/7/10 6/6/1
f 12/12/11 8/8/4 7/7/10
f 13/13/12 9/9/7 8/8/4
f 14/14/13 10/10/14 9/9/7
f 16/16/15 12/12/11 11/11/9
f 12/12/11 18/18/16 13/13/12
f 18/18/16 14/14/13 13/13/12
f 19/19/17 15/15/18 14/14/13
f 21/21/19 17/17/20 16/16/15
f 22/22/21 18/18/16 17/17/20
f 18/18/16 24/24/22 19/19/17
f 24/24/22 20/20/23 19/19/17
f 26/26/24 22/22/21 21/21/19
f 27/28/25 23/23/26 22/22/21
f 23/23/26 29/32/27 24/24/22
f 29/32/27 25/25/28 24/24/22
f 26/27/24 32/37/29 27/29/25
f 27/29/25 33/38/30 28/30/31
f 33/38/30 29/33/27 28/30/31
f 34/39/32 30/35/33 29/33/27
f 36/41/34 32/37/29 31/36/35
f 37/42/36 33/38/30 32/37/29
f 38/43/37 34/39/32 33/38/30
f 34/39/32 40/45/38 35/40/39
f 41/46/40 37/42/36 36/41/34
f 42/47/41 38/43/37 37/42/36
f 43/48/42 39/44/43 38/43/37
f 39/44/43 45/50/44 40/45/38
f 46/51/45 42/47/41 41/46/40
f 47/52/46 43/48/42 42/47/41
f 43/48/42 49/54/47 44/49/48
f 44/49/48 50/55/49 45/50/44
f 46/51/45 52/57/50 47/52/46
f 52/57/50 48/53/51 47/52/46
f 53/58/52 49/54/47 48/53/51
f 54/59/53 50/55/49 49/54/47
f 51/56/54 2/2/2 52/57/50
f 2/2/2 53/58/52 52/57/50
f 3/3/5 54/59/53 53/58/52
f 4/4/6 55/60/55 54/59/53
f 6/6/1 7/7/10 2/2/2
f 2/2/2 7/7/10 8/8/4
f 8/8/4 9/9/7 4/4/6
f 9/9/7 10/10/14 5/5/8
f 11/11/9 12/12/11 7/7/10
f 12/12/11 13/13/12 8/8/4
f 13/13/12 14/14/13 9/9/7
f 14/14/13 15/15/18 10/10/14
f 16/16/15 17/17/20 12/12/11
f 12/12/11 17/17/20 18/18/16
f 18/18/16 19/19/17 14/14/13
f 19/19/17 20/20/23 15/15/18
f 21/21/19 22/22/21 17/17/20
f 22/22/21 23/23/26 18/18/16
f 18/18/16 23/23/26 24/24/22
f 24/24/22 25/25/28 20/20/23
f 26/26/24 27/28/25 22/22/21
f 27/28/25 28/31/31 23/23/26
f 23/23/26 28/31/31 29/32/27
f 29/32/27 30/34/33 25/25/28
f 26/27/24 31/36/35 32/37/29
f 27/29/25 32/37/29 33/38/30
f 33/38/30 34/39/32 29/33/27
f 34/39/32 35/40/39 30/35/33
f 36/41/34 37/42/36 32/37/29
f 37/42/36 38/43/37 33/38/30
f 38/43/37 39/44/43 34/39/32
f 34/39/32 39/44/43 40/45/38
f 41/46/40 42/47/41 37/42/36
f 42/47/41 43/48/42 38/43/37
f 43/48/42 44/49/48 39/44/43
f 39/44/43 44/49/48 45/50/44
f 46/51/45 47/52/46 42/47/41
f 47/52/46 48/53/51 43/48/42
f 43/48/42 48/53/51 49/54/47
f 44/49/48 49/54/47 50/55/49
f 46/51/45 51/56/54 52/57/50
f 52/57/50 53/58/52 48/53/51
f 53/58/52 54/59/53 49/54/47
f 54/59/53 55/60/55 50/55/49
f 51/56/54 1/1/3 2/2/2
f 2/2/2 3/3/5 53/58/52
f 3/3/5 4/4/6 54/59/53
f 4/4/6 5/5/8 55/60/55
