# Blender 3.3.1
# www.blender.org
o Torus.002
v 0.657000 0.000000 0.000000
v 0.526500 0.226033 0.000000
v 0.265500 0.226033 0.000000
v 0.135000 0.000000 0.000000
v 0.526500 -0.226033 0.000000
v 0.328500 0.000000 -0.568979
v 0.263250 0.226033 -0.455962
v 0.132750 0.226033 -0.229930
v 0.067500 0.000000 -0.116913
v 0.263250 -0.226033 -0.455962
v -0.328500 0.000000 -0.568979
v -0.263250 0.226033 -0.455962
v -0.132750 0.226033 -0.229930
v -0.067500 0.000000 -0.116913
v -0.263250 -0.226033 -0.455962
v -0.657000 0.000000 -0.000000
v -0.526500 0.226033 -0.000000
v -0.265500 0.226033 -0.000000
v -0.135000 0.000000 -0.000000
v -0.526500 -0.226033 -0.000000
v -0.328500 0.000000 0.568979
v -0.263250 0.226033 0.455962
v -0.132750 0.226033 0.229930
v -0.067500 0.000000 0.116913
v -0.263250 -0.226033 0.455962
v 0.328500 0.000000 0.568979
v 0.263250 0.226033 0.455962
v 0.132750 0.226033 0.229930
v 0.067500 0.000000 0.116913
v 0.263250 -0.226033 0.455962
vn 0.5000 -0.0000 -0.8660
vn 0.6042 0.7968 -0.0000
vn 1.0000 -0.0000 -0.0000
vn 0.3021 0.7968 -0.5233
vn -0.3556 0.9347 -0.0000
vn -0.1778 0.9347 0.3079
vn -0.8660 0.5000 -0.0000
vn 0.8660 -0.5000 -0.0000
vn -0.3021 0.7968 -0.5233
vn 0.1778 0.9347 0.3079
vn -0.4330 0.5000 0.7500
vn 0.4330 -0.5000 -0.7500
vn -0.5000 -0.0000 -0.8660
vn -1.0000 -0.0000 -0.0000
vn -0.6042 0.7968 -0.0000
vn 0.3556 0.9347 -0.0000
vn 0.4330 0.5000 0.7500
vn -0.8660 -0.5000 -0.0000
vn -0.4330 -0.5000 -0.7500
vn -0.5000 -0.0000 0.8660
vn -0.3021 0.7968 0.5233
vn 0.1778 0.9347 -0.3079
vn 0.8660 0.5000 -0.0000
vn -0.4330 -0.5000 0.7500
vn 0.5000 -0.0000 0.8660
vn 0.3021 0.7968 0.5233
vn -0.1778 0.9347 -0.3079
vn 0.4330 0.5000 -0.7500
vn 0.4330 -0.5000 0.7500
vn -0.4330 0.5000 -0.7500
vt 0.500000 0.500000
vt 0.500000 0.666667
vt 0.500000 0.833333
vt 0.500000 1.000000
vt 0.500000 0.333333
vt 0.666667 0.500000
vt 0.666667 0.666667
vt 0.666667 0.833333
vt 0.666667 1.000000
vt 0.666667 0.333333
vt 0.833333 0.500000
vt 0.833333 0.666667
vt 0.833333 0.833333
vt 0.833333 1.000000
vt 0.833333 0.333333
vt 1.000000 0.500000
vt -0.000000 0.500000
vt 1.000000 0.666667
vt -0.000000 0.666667
vt 1.000000 0.833333
vt -0.000000 0.833333
vt 1.000000 1.000000
vt -0.000000 1.000000
vt -0.000000 0.333333
vt 1.000000 0.333333
vt 0.166667 0.500000
vt 0.166667 0.666667
vt 0.166667 0.833333
vt 0.166667 1.000000
vt 0.166667 0.333333
vt 0.333333 0.500000
vt 0.333333 0.666667
vt 0.333333 0.833333
vt 0.333333 1.000000
vt 0.333333 0.333333
s 1
f 6/6/1 2/2/2 1/1/3
f 7/7/4 3/3/5 2/2/2
f 8/8/6 4/4/7 3/3/5
f 5/5/8 6/6/1 1/1/3
f 6/6/1 12/12/9 7/7/4
f 12/12/9 8/8/6 7/7/4
f 13/13/10 9/9/11 8/8/6
f 10/10/12 11/11/13 6/6/1
f 16/16/14 12/12/9 11/11/13
f 17/18/15 13/13/10 12/12/9
f 18/20/16 14/14/17 13/13/10
f 20/25/18 11/11/13 15/15/19
f 21/26/20 17/19/15 16/17/14
f 22/27/21 18/21/16 17/19/15
f 23/28/22 19/23/23 18/21/16
f 25/30/24 16/17/14 20/24/18
f 26/31/25 22/27/21 21/26/20
f 27/32/26 23/28/22 22/27/21
f 28/33/27 24/29/28 23/28/22
f 30/35/29 21/26/20 25/30/24
f 26/31/25 2/2/2 27/32/26
f 2/2/2 28/33/27 27/32/26
f 3/3/5 29/34/30 28/33/27
f 5/5/8 26/31/25 30/35/29
f 6/6/1 7/7/4 2/2/2
f 7/7/4 8/8/6 3/3/5
f 8/8/6 9/9/11 4/4/7
f 5/5/8 10/10/12 6/6/1
f 6/6/1 11/11/13 12/12/9
f 12/12/9 13/13/10 8/8/6
f 13/13/10 14/14/17 9/9/11
f 10/10/12 15/15/19 11/11/13
f 16/16/14 17/18/15 12/12/9
f 17/18/15 18/20/16 13/13/10
f 18/20/16 19/22/23 14/14/17
f 20/25/18 16/16/14 11/11/13
f 21/26/20 22/27/21 17/19/15
f 22/27/21 23/28/22 18/21/16
f 23/28/22 24/29/28 19/23/23
f 25/30/24 21/26/20 16/17/14
f 26/31/25 27/32/26 22/27/21
f 27/32/26 28/33/27 23/28/22
f 28/33/27 29/34/30 24/29/28
f 30/35/29 26/31/25 21/26/20
f 26/31/25 1/1/3 2/2/2
f 2/2/2 3/3/5 28/33/27
f 3/3/5 4/4/7 29/34/30
f 5/5/8 1/1/3 26/31/25
