# Blender 3.3.1
# www.blender.org
o Icosphere
v 0.000000 -1.000000 0.000000
v 0.723607 -0.447220 0.525725
v -0.276388 -0.447220 0.850649
v -0.894426 -0.447216 0.000000
v -0.276388 -0.447220 -0.850649
v 0.723607 -0.447220 -0.525725
v 0.276388 0.447220 0.850649
v -0.723607 0.447220 0.525725
v -0.723607 0.447220 -0.525725
v 0.276388 0.447220 -0.850649
v 0.894426 0.447216 0.000000
v 0.000000 1.000000 0.000000
v -0.162456 -0.850654 0.499995
v 0.425323 -0.850654 0.309011
v 0.262869 -0.525738 0.809012
v 0.850648 -0.525736 0.000000
v 0.425323 -0.850654 -0.309011
v -0.525730 -0.850652 0.000000
v -0.688189 -0.525736 0.499997
v -0.162456 -0.850654 -0.499995
v -0.688189 -0.525736 -0.499997
v 0.262869 -0.525738 -0.809012
v 0.951058 0.000000 0.309013
v 0.951058 0.000000 -0.309013
v 0.000000 0.000000 1.000000
v 0.587786 0.000000 0.809017
v -0.951058 0.000000 0.309013
v -0.587786 0.000000 0.809017
v -0.587786 0.000000 -0.809017
v -0.951058 0.000000 -0.309013
v 0.587786 0.000000 -0.809017
v 0.000000 0.000000 -1.000000
v 0.688189 0.525736 0.499997
v -0.262869 0.525738 0.809012
v -0.850648 0.525736 0.000000
v -0.262869 0.525738 -0.809012
v 0.688189 0.525736 -0.499997
v 0.162456 0.850654 0.499995
v 0.525730 0.850652 0.000000
v -0.425323 0.850654 0.309011
v -0.425323 0.850654 -0.309011
v 0.162456 0.850654 -0.499995
vn -0.0000 -1.0000 -0.0000
vn 0.4253 -0.8507 0.3090
vn -0.1625 -0.8507 0.5000
vn 0.7236 -0.4472 0.5257
vn 0.8506 -0.5257 -0.0000
vn -0.5257 -0.8507 -0.0000
vn -0.1625 -0.8507 -0.5000
vn 0.4253 -0.8507 -0.3090
vn 0.9511 -0.0000 0.3090
vn -0.2764 -0.4472 0.8506
vn 0.2629 -0.5257 0.8090
vn -0.0000 -0.0000 1.0000
vn -0.8944 -0.4472 -0.0000
vn -0.6882 -0.5257 0.5000
vn -0.9511 -0.0000 0.3090
vn -0.2764 -0.4472 -0.8506
vn -0.6882 -0.5257 -0.5000
vn -0.5878 -0.0000 -0.8090
vn 0.7236 -0.4472 -0.5257
vn 0.2629 -0.5257 -0.8090
vn 0.5878 -0.0000 -0.8090
vn 0.5878 -0.0000 0.8090
vn -0.5878 -0.0000 0.8090
vn -0.9511 -0.0000 -0.3090
vn -0.0000 -0.0000 -1.0000
vn 0.9511 -0.0000 -0.3090
vn 0.2764 0.4472 0.8506
vn 0.6882 0.5257 0.5000
vn 0.1625 0.8507 0.5000
vn -0.7236 0.4472 0.5257
vn -0.2629 0.5257 0.8090
vn -0.4253 0.8507 0.3090
vn -0.7236 0.4472 -0.5257
vn -0.8506 0.5257 -0.0000
vn -0.4253 0.8507 -0.3090
vn 0.2764 0.4472 -0.8506
vn -0.2629 0.5257 -0.8090
vn 0.1625 0.8507 -0.5000
vn 0.8944 0.4472 -0.0000
vn 0.6882 0.5257 -0.5000
vn 0.5257 0.8507 -0.0000
vn -0.0000 1.0000 -0.0000
vt -1.235771 -0.794968
vt 2.731712 -0.794968
vt 1.739841 -0.794968
vt 0.747970 -0.794968
vt -0.243900 -0.794968
vt -0.739836 0.064028
vt 3.227647 0.064028
vt -1.731706 0.064028
vt 2.235776 0.064028
vt 1.243906 0.064028
vt 0.252035 0.064028
vt -1.235771 0.923019
vt -2.227647 0.923019
vt 2.731712 0.923019
vt 1.739841 0.923019
vt 0.747970 0.923019
vt -0.243900 0.923019
vt 0.252035 1.782015
vt 1.243906 1.782015
vt 2.235776 1.782015
vt -1.731706 1.782015
vt -0.739836 1.782015
vt 2.979680 -0.365470
vt -1.483739 -0.365470
vt -0.491868 -0.365470
vt -0.987803 -0.365470
vt -1.235771 0.064028
vt -0.243900 0.064028
vt 0.500003 -0.365470
vt 0.004067 -0.365470
vt 1.987809 -0.365470
vt 2.483744 -0.365470
vt 2.731712 0.064028
vt 0.995938 -0.365470
vt 1.491873 -0.365470
vt 1.739841 0.064028
vt 0.747970 0.064028
vt -0.491868 0.493524
vt 0.004067 0.493524
vt -1.483739 0.493524
vt -0.987803 0.493524
vt 2.483744 0.493524
vt -1.979677 0.493524
vt 2.979680 0.493524
vt 1.491873 0.493524
vt 1.987809 0.493524
vt 0.500003 0.493524
vt 0.995938 0.493524
vt -0.739836 0.923019
vt -1.731709 0.923019
vt 2.235776 0.923019
vt 1.243906 0.923019
vt 0.252035 0.923019
vt -1.483739 1.352517
vt -0.987803 1.352517
vt 0.004067 1.352517
vt -0.491868 1.352517
vt 2.483744 1.352517
vt -1.979677 1.352517
vt 1.491873 1.352517
vt 1.987809 1.352517
vt 0.500003 1.352517
vt 0.995938 1.352517
s 1
f 1/1/1 14/26/2 13/24/3
f 2/6/4 14/25/2 16/28/5
f 1/2/1 13/23/3 18/32/6
f 1/3/1 18/31/6 20/35/7
f 1/4/1 20/34/7 17/29/8
f 2/6/4 16/28/5 23/38/9
f 3/8/10 15/27/11 25/40/12
f 4/9/13 19/33/14 27/42/15
f 5/10/16 21/36/17 29/45/18
f 6/11/19 22/37/20 31/47/21
f 2/6/4 23/38/9 26/41/22
f 3/8/10 25/40/12 28/43/23
f 4/9/13 27/42/15 30/46/24
f 5/10/16 29/45/18 32/48/25
f 6/11/19 31/47/21 24/39/26
f 7/12/27 33/49/28 38/55/29
f 8/13/30 34/50/31 40/59/32
f 9/15/33 35/51/34 41/61/35
f 10/16/36 36/52/37 42/63/38
f 11/17/39 37/53/40 39/56/41
f 39/56/41 42/62/38 12/18/42
f 39/56/41 37/53/40 42/62/38
f 37/53/40 10/16/36 42/62/38
f 42/63/38 41/60/35 12/19/42
f 42/63/38 36/52/37 41/60/35
f 36/52/37 9/15/33 41/60/35
f 41/61/35 40/58/32 12/20/42
f 41/61/35 35/51/34 40/58/32
f 35/51/34 8/14/30 40/58/32
f 40/59/32 38/54/29 12/21/42
f 40/59/32 34/50/31 38/54/29
f 34/50/31 7/12/27 38/54/29
f 38/55/29 39/57/41 12/22/42
f 38/55/29 33/49/28 39/57/41
f 33/49/28 11/17/39 39/57/41
f 24/39/26 37/53/40 11/17/39
f 24/39/26 31/47/21 37/53/40
f 31/47/21 10/16/36 37/53/40
f 32/48/25 36/52/37 10/16/36
f 32/48/25 29/45/18 36/52/37
f 29/45/18 9/15/33 36/52/37
f 30/46/24 35/51/34 9/15/33
f 30/46/24 27/42/15 35/51/34
f 27/42/15 8/14/30 35/51/34
f 28/43/23 34/50/31 8/13/30
f 28/43/23 25/40/12 34/50/31
f 25/40/12 7/12/27 34/50/31
f 26/41/22 33/49/28 7/12/27
f 26/41/22 23/38/9 33/49/28
f 23/38/9 11/17/39 33/49/28
f 31/47/21 32/48/25 10/16/36
f 31/47/21 22/37/20 32/48/25
f 22/37/20 5/10/16 32/48/25
f 29/45/18 30/46/24 9/15/33
f 29/45/18 21/36/17 30/46/24
f 21/36/17 4/9/13 30/46/24
f 27/42/15 28/44/23 8/14/30
f 27/42/15 19/33/14 28/44/23
f 19/33/14 3/7/10 28/44/23
f 25/40/12 26/41/22 7/12/27
f 25/40/12 15/27/11 26/41/22
f 15/27/11 2/6/4 26/41/22
f 23/38/9 24/39/26 11/17/39
f 23/38/9 16/28/5 24/39/26
f 16/28/5 6/11/19 24/39/26
f 17/29/8 22/37/20 6/11/19
f 17/29/8 20/34/7 22/37/20
f 20/34/7 5/10/16 22/37/20
f 20/35/7 21/36/17 5/10/16
f 20/35/7 18/31/6 21/36/17
f 18/31/6 4/9/13 21/36/17
f 18/32/6 19/33/14 4/9/13
f 18/32/6 13/23/3 19/33/14
f 13/23/3 3/7/10 19/33/14
f 16/28/5 17/30/8 6/11/19
f 16/28/5 14/25/2 17/30/8
f 14/25/2 1/5/1 17/30/8
f 13/24/3 15/27/11 3/8/10
f 13/24/3 14/26/2 15/27/11
f 14/26/2 2/6/4 15/27/11
