# Blender 3.3.1
# www.blender.org
o right_leg
v -0.218159 -1.357991 -0.373643
v -0.218159 -1.337492 -0.373643
v -0.309634 -1.357991 0.280347
v -0.309634 -1.305959 0.280347
v -0.598219 -1.357991 -0.373643
v -0.598219 -1.337492 -0.373643
v -0.506744 -1.357991 0.280347
v -0.506744 -1.305959 0.280347
v -0.309634 -1.357991 0.116850
v -0.309634 -1.357991 -0.046648
v -0.309634 -1.232188 -0.046648
v -0.309634 -1.232188 0.116850
v -0.506744 -1.357991 -0.046648
v -0.506744 -1.357991 0.116850
v -0.506744 -1.232188 0.116850
v -0.506744 -1.232188 -0.046648
v -0.345270 -1.339809 0.123797
v -0.328249 -1.285164 0.006403
v -0.476707 -1.298869 0.123797
v -0.459686 -1.244225 0.006403
v -0.044766 -0.375035 0.654886
v -0.147876 -0.706074 0.567172
v -0.116826 -0.606387 0.353014
v -0.032770 -0.336522 0.572146
v -0.279314 -0.665134 0.567172
v -0.176203 -0.334096 0.654886
v -0.164207 -0.295582 0.572146
v -0.248264 -0.565448 0.353014
v -0.163852 -0.677560 0.646984
v 0.024988 -0.071286 -0.054855
v -0.128153 -0.562945 0.755598
v 0.060687 0.043329 0.053760
v -0.249971 -0.650736 0.646984
v -0.061132 -0.044461 -0.054855
v -0.214272 -0.536121 0.755598
v -0.025432 0.070153 0.053760
vn 1.0000 -0.0000 -0.0000
vn -0.0000 -0.0000 1.0000
vn -0.9630 -0.0000 0.2694
vn -0.0000 -0.0000 -1.0000
vn -0.0000 0.9115 0.4113
vn -0.0000 1.0000 -0.0000
vn -0.0000 -1.0000 -0.0000
vn -1.0000 -0.0000 -0.0000
vn 0.9630 -0.0000 0.2694
vn -0.0000 0.9519 -0.3065
vn -0.1652 -0.5303 0.8315
vn -0.9548 0.2974 -0.0000
vn 0.1303 0.4184 -0.8989
vn 0.9548 -0.2974 -0.0000
vn -0.2673 -0.8582 -0.4382
vn 0.1822 0.5850 -0.7903
vn -0.0729 -0.2342 0.9695
vn 0.2673 0.8582 0.4382
vn 0.2205 0.7080 0.6709
vn -0.2205 -0.7080 -0.6709
vn -0.1995 -0.6406 0.7415
vn 0.1995 0.6406 -0.7415
vt 0.375000 1.000000
vt 0.625000 1.000000
vt 0.375000 0.250000
vt 0.125000 0.500000
vt 0.625000 0.250000
vt 0.875000 0.500000
vt 0.375000 0.750000
vt 0.625000 0.750000
vt 0.375000 0.500000
vt 0.625000 0.500000
vt 0.125000 0.562500
vt 0.375000 0.187500
vt 0.125000 0.625000
vt 0.375000 0.125000
vt 0.875000 0.625000
vt 0.625000 0.125000
vt 0.875000 0.562500
vt 0.625000 0.187500
vt 0.375000 0.625000
vt 0.375000 0.562500
vt 0.625000 0.562500
vt 0.625000 0.625000
vt 0.625000 1.000000
vt 0.625000 0.000000
vt 0.875000 0.750000
vt 0.625000 0.250000
vt 0.875000 0.500000
vt 0.625000 0.750000
vt 0.625000 0.500000
vt 0.375000 0.076706
vt 0.125000 0.673294
vt 0.451706 1.000000
vt 0.451706 0.000000
vt 0.125000 0.750000
vt 0.451706 0.250000
vt 0.125000 0.500000
vt 0.375000 0.173294
vt 0.125000 0.576706
vt 0.451706 0.750000
vt 0.375000 0.750000
vt 0.375000 0.673294
vt 0.375000 0.576706
vt 0.451706 0.500000
vt 0.375000 0.500000
vt 0.375000 0.000000
vt 0.375000 1.000000
vt 0.125000 0.750000
vt 0.625000 0.000000
vt 0.625000 1.000000
vt 0.875000 0.750000
vt 0.375000 0.250000
vt 0.125000 0.500000
vt 0.625000 0.250000
vt 0.875000 0.500000
vt 0.375000 0.750000
vt 0.625000 0.750000
vt 0.375000 0.500000
vt 0.625000 0.500000
s 0
f 9/12/1 4/5/1 3/3/1
f 4/5/2 7/9/2 3/3/2
f 13/19/3 6/8/3 5/7/3
f 6/8/4 1/1/4 5/7/4
f 4/6/5 15/21/5 8/10/5
f 12/17/6 16/22/6 15/21/6
f 7/9/7 9/11/7 3/4/7
f 14/20/7 10/13/7 9/11/7
f 10/14/7 5/7/7 1/1/7
f 8/10/8 14/20/8 7/9/8
f 15/21/8 13/19/8 14/20/8
f 2/2/9 10/14/9 1/1/9
f 11/16/1 9/12/1 10/14/1
f 2/2/10 16/22/10 11/15/10
f 19/28/11 22/32/11 25/39/11
f 28/43/12 19/28/12 26/41/12
f 18/26/13 28/43/13 23/35/13
f 22/33/14 18/26/14 24/37/14
f 18/27/15 19/28/15 20/29/15
f 24/38/16 28/44/16 27/42/16
f 26/41/17 22/34/17 21/31/17
f 27/42/18 21/31/18 24/38/18
f 29/45/14 32/53/14 31/51/14
f 32/53/19 35/57/19 31/51/19
f 36/58/12 33/55/12 35/57/12
f 34/56/20 29/46/20 33/55/20
f 35/57/21 29/47/21 31/52/21
f 32/54/22 34/56/22 36/58/22
f 9/12/1 12/18/1 4/5/1
f 4/5/2 8/10/2 7/9/2
f 13/19/3 16/22/3 6/8/3
f 6/8/4 2/2/4 1/1/4
f 4/6/5 12/17/5 15/21/5
f 12/17/6 11/15/6 16/22/6
f 7/9/7 14/20/7 9/11/7
f 14/20/7 13/19/7 10/13/7
f 10/14/7 13/19/7 5/7/7
f 8/10/8 15/21/8 14/20/8
f 15/21/8 16/22/8 13/19/8
f 2/2/9 11/16/9 10/14/9
f 11/16/1 12/18/1 9/12/1
f 2/2/10 6/8/10 16/22/10
f 19/28/11 17/23/11 22/32/11
f 26/41/12 27/42/12 28/43/12
f 28/43/12 20/29/12 19/28/12
f 19/28/12 25/39/12 26/41/12
f 18/26/13 20/29/13 28/43/13
f 24/37/14 21/30/14 22/33/14
f 22/33/14 17/24/14 18/26/14
f 18/26/14 23/35/14 24/37/14
f 18/27/15 17/25/15 19/28/15
f 24/38/16 23/36/16 28/44/16
f 26/41/17 25/40/17 22/34/17
f 27/42/18 26/41/18 21/31/18
f 29/45/14 30/48/14 32/53/14
f 32/53/19 36/58/19 35/57/19
f 36/58/12 34/56/12 33/55/12
f 34/56/20 30/49/20 29/46/20
f 35/57/21 33/55/21 29/47/21
f 32/54/22 30/50/22 34/56/22
