# Blender 3.3.1
# www.blender.org
o Cube
v -0.166298 -0.334850 -0.369926
v -0.270264 -0.005985 0.450527
v -0.270264 0.313725 0.322377
v 0.166298 -0.334850 -0.369926
v 0.270264 -0.005985 0.450527
v 0.270264 0.313725 0.322377
v -0.270264 -0.071758 0.286437
v -0.270264 -0.137531 0.122346
v -0.270264 -0.203304 -0.041744
v -0.270264 -0.269077 -0.205835
v -0.166298 0.110492 -0.357979
v -0.270264 0.176265 -0.193888
v -0.270264 0.242038 -0.029798
v -0.270264 0.289538 0.141617
v 0.270264 -0.269077 -0.205835
v 0.270264 -0.203304 -0.041744
v 0.270264 -0.137531 0.122346
v 0.270264 -0.071758 0.286437
v 0.270264 0.289538 0.141617
v 0.270264 0.242038 -0.029798
v 0.270264 0.176265 -0.193888
v 0.166298 0.110492 -0.357979
v -0.166298 -0.299991 -0.383898
v -0.249015 -0.295603 -0.622490
v -0.249015 -0.209426 -0.657033
v -0.270264 0.287407 0.332926
v -0.157986 0.272808 0.575611
v -0.157986 0.207052 0.601968
v -0.270264 0.028874 0.436555
v 0.270264 0.287407 0.332926
v 0.157986 0.272808 0.575611
v 0.157986 0.207052 0.601968
v 0.270264 0.028874 0.436555
v 0.249015 -0.209426 -0.657033
v 0.249015 -0.295603 -0.622490
v 0.166298 -0.299991 -0.383898
v 0.270264 0.221633 0.168836
v 0.404695 0.184530 0.325808
v 0.404695 0.098352 0.360351
v 0.270264 -0.036899 0.272464
v 0.270264 0.155860 0.004745
v 0.404695 0.086041 0.080098
v 0.404695 -0.000137 0.114641
v 0.270264 -0.102672 0.108374
v 0.270264 0.090087 -0.159345
v 0.404695 -0.012448 -0.165612
v 0.404695 -0.098625 -0.131070
v 0.270264 -0.168445 -0.055717
v 0.270264 0.024314 -0.323436
v 0.404695 -0.110937 -0.411323
v 0.404695 -0.197114 -0.376780
v 0.270264 -0.234218 -0.219807
v -0.270264 0.024314 -0.323436
v -0.404695 -0.110937 -0.411323
v -0.404695 -0.197114 -0.376780
v -0.270264 -0.234218 -0.219807
v -0.270264 0.090087 -0.159345
v -0.404695 -0.012448 -0.165612
v -0.404695 -0.098625 -0.131070
v -0.270264 -0.168445 -0.055717
v -0.270264 0.155860 0.004745
v -0.404695 0.086041 0.080098
v -0.404695 -0.000137 0.114641
v -0.270264 -0.102672 0.108374
v -0.270264 0.221633 0.168836
v -0.404695 0.184530 0.325808
v -0.404695 0.098352 0.360351
v -0.270264 -0.036899 0.272464
vn 1.0000 -0.0000 -0.0000
vn -0.0000 -0.3721 -0.9282
vn -0.0000 0.9282 -0.3721
vn -0.0000 -0.9912 0.1326
vn -0.0000 -0.9637 0.2670
vn -0.0000 -0.9282 0.3721
vn -1.0000 -0.0000 -0.0000
vn 0.5683 0.7638 -0.3061
vn 0.5683 -0.7638 0.3061
vn 0.8620 0.1886 0.4705
vn 0.3904 0.9130 -0.1186
vn -0.0000 -0.6829 0.7305
vn -0.5683 0.7638 -0.3061
vn -0.5683 -0.7638 0.3061
vn -0.7315 -0.2537 -0.6328
vn -0.5870 -0.7452 -0.3164
vn -0.0000 0.3721 0.9282
vn -0.0000 0.9998 0.0184
vn -0.8620 0.1886 0.4705
vn -0.3904 0.9130 -0.1186
vn 0.6518 -0.6010 0.4626
vn -0.0000 0.6804 -0.7329
vn -0.0000 -0.9982 -0.0600
vn 0.7315 -0.2537 -0.6328
vn 0.5870 -0.7452 -0.3164
vn -0.6202 -0.5089 0.5969
vn 0.6202 -0.5089 0.5969
vn 0.3904 -0.7421 0.5448
vn -0.5870 0.3203 -0.7435
vn -0.3904 -0.7421 0.5448
vn -0.6518 -0.6010 0.4626
vn 0.5870 0.3203 -0.7435
vt 0.375000 0.000000
vt 0.125000 0.750000
vt 0.375000 1.000000
vt 0.125000 0.500000
vt 0.375000 0.250000
vt 0.625000 0.250000
vt 0.875000 0.500000
vt 0.375000 0.750000
vt 0.375000 0.500000
vt 0.625000 0.500000
vt 0.125000 0.550000
vt 0.375000 0.200000
vt 0.125000 0.600000
vt 0.375000 0.150000
vt 0.125000 0.650000
vt 0.375000 0.100000
vt 0.125000 0.700000
vt 0.375000 0.050000
vt 0.875000 0.700000
vt 0.625000 0.050000
vt 0.875000 0.650000
vt 0.625000 0.100000
vt 0.875000 0.600000
vt 0.625000 0.150000
vt 0.875000 0.550000
vt 0.625000 0.200000
vt 0.375000 0.700000
vt 0.375000 0.650000
vt 0.375000 0.600000
vt 0.375000 0.550000
vt 0.625000 0.550000
vt 0.625000 0.600000
vt 0.625000 0.650000
vt 0.625000 0.700000
vt 0.425000 0.000000
vt 0.425000 1.000000
vt 0.475000 0.000000
vt 0.475000 1.000000
vt 0.525000 0.000000
vt 0.525000 1.000000
vt 0.575000 0.250000
vt 0.525000 0.250000
vt 0.475000 0.250000
vt 0.425000 0.250000
vt 0.575000 0.500000
vt 0.525000 0.500000
vt 0.475000 0.500000
vt 0.425000 0.500000
vt 0.525000 0.750000
vt 0.475000 0.750000
vt 0.425000 0.750000
vt 0.575000 0.550000
vt 0.525000 0.550000
vt 0.475000 0.550000
vt 0.425000 0.550000
vt 0.575000 0.600000
vt 0.525000 0.600000
vt 0.475000 0.600000
vt 0.425000 0.600000
vt 0.575000 0.650000
vt 0.525000 0.650000
vt 0.475000 0.650000
vt 0.425000 0.650000
vt 0.575000 0.700000
vt 0.525000 0.700000
vt 0.475000 0.700000
vt 0.425000 0.700000
vt 0.575000 0.050000
vt 0.525000 0.050000
vt 0.475000 0.050000
vt 0.425000 0.050000
vt 0.575000 0.100000
vt 0.525000 0.100000
vt 0.475000 0.100000
vt 0.425000 0.100000
vt 0.575000 0.150000
vt 0.525000 0.150000
vt 0.475000 0.150000
vt 0.425000 0.150000
vt 0.575000 0.200000
vt 0.525000 0.200000
vt 0.475000 0.200000
vt 0.425000 0.200000
s 0
f 14/26/1 26/41/1 65/80/1
f 3/6/2 30/45/2 26/41/2
f 15/27/3 1/2/3 10/17/3
f 3/7/4 19/31/4 6/10/4
f 14/25/5 20/32/5 19/31/5
f 13/23/6 21/33/6 20/32/6
f 12/21/6 22/34/6 21/33/6
f 5/9/3 7/11/3 2/4/3
f 18/30/3 8/13/3 7/11/3
f 17/29/3 9/15/3 8/13/3
f 16/28/3 10/17/3 9/15/3
f 6/10/7 37/52/7 30/45/7
f 19/31/7 41/56/7 37/52/7
f 20/32/7 45/60/7 41/56/7
f 21/33/7 49/64/7 45/60/7
f 53/68/1 12/22/1 57/72/1
f 12/22/1 61/76/1 57/72/1
f 13/24/1 65/80/1 61/76/1
f 64/79/1 7/12/1 8/14/1
f 63/78/8 68/83/8 64/79/8
f 62/77/1 67/82/1 63/78/1
f 62/77/9 65/80/9 66/81/9
f 60/75/1 8/14/1 9/16/1
f 60/75/8 63/78/8 64/79/8
f 58/73/1 63/78/1 59/74/1
f 57/72/9 62/77/9 58/73/9
f 56/71/1 9/16/1 10/18/1
f 56/71/8 59/74/8 60/75/8
f 54/69/1 59/74/1 55/70/1
f 53/68/9 58/73/9 54/69/9
f 23/35/10 10/18/10 1/1/10
f 23/35/11 55/70/11 56/71/11
f 25/39/10 55/70/10 24/37/10
f 25/39/12 34/49/12 22/34/12
f 48/63/7 15/27/7 16/28/7
f 47/62/13 52/67/13 48/63/13
f 46/61/7 51/66/7 47/62/7
f 46/61/14 49/64/14 50/65/14
f 44/59/7 16/28/7 17/29/7
f 44/59/13 47/62/13 48/63/13
f 42/57/7 47/62/7 43/58/7
f 41/56/14 46/61/14 42/57/14
f 40/55/7 17/29/7 18/30/7
f 40/55/13 43/58/13 44/59/13
f 38/53/7 43/58/7 39/54/7
f 37/52/14 42/57/14 38/53/14
f 33/48/7 18/30/7 5/9/7
f 33/48/13 39/54/13 40/55/13
f 31/46/15 39/54/15 32/47/15
f 30/45/16 38/53/16 31/46/16
f 36/51/17 1/3/17 4/8/17
f 35/50/18 23/36/18 36/51/18
f 34/49/17 24/38/17 35/50/17
f 22/34/12 11/20/12 25/39/12
f 52/67/19 4/8/19 15/27/19
f 51/66/20 36/51/20 52/67/20
f 50/65/19 35/50/19 51/66/19
f 11/20/21 53/68/21 25/39/21
f 29/44/2 5/9/2 2/5/2
f 29/44/22 32/47/22 33/48/22
f 27/42/2 32/47/2 28/43/2
f 26/41/23 31/46/23 27/42/23
f 68/83/1 2/5/1 7/12/1
f 67/82/8 29/44/8 68/83/8
f 66/81/24 28/43/24 67/82/24
f 66/81/25 26/41/25 27/42/25
f 14/26/1 3/6/1 26/41/1
f 3/6/2 6/10/2 30/45/2
f 15/27/3 4/8/3 1/2/3
f 3/7/4 14/25/4 19/31/4
f 14/25/5 13/23/5 20/32/5
f 13/23/6 12/21/6 21/33/6
f 12/21/6 11/19/6 22/34/6
f 5/9/3 18/30/3 7/11/3
f 18/30/3 17/29/3 8/13/3
f 17/29/3 16/28/3 9/15/3
f 16/28/3 15/27/3 10/17/3
f 6/10/7 19/31/7 37/52/7
f 19/31/7 20/32/7 41/56/7
f 20/32/7 21/33/7 45/60/7
f 21/33/26 22/34/26 49/64/26
f 53/68/27 11/20/27 12/22/27
f 12/22/1 13/24/1 61/76/1
f 13/24/1 14/26/1 65/80/1
f 64/79/1 68/83/1 7/12/1
f 63/78/8 67/82/8 68/83/8
f 62/77/1 66/81/1 67/82/1
f 62/77/9 61/76/9 65/80/9
f 60/75/1 64/79/1 8/14/1
f 60/75/8 59/74/8 63/78/8
f 58/73/1 62/77/1 63/78/1
f 57/72/9 61/76/9 62/77/9
f 56/71/1 60/75/1 9/16/1
f 56/71/8 55/70/8 59/74/8
f 54/69/1 58/73/1 59/74/1
f 53/68/9 57/72/9 58/73/9
f 23/35/10 56/71/10 10/18/10
f 23/35/11 24/37/11 55/70/11
f 25/39/10 54/69/10 55/70/10
f 53/68/28 54/69/28 25/39/28
f 48/63/7 52/67/7 15/27/7
f 47/62/13 51/66/13 52/67/13
f 46/61/7 50/65/7 51/66/7
f 46/61/14 45/60/14 49/64/14
f 44/59/7 48/63/7 16/28/7
f 44/59/13 43/58/13 47/62/13
f 42/57/7 46/61/7 47/62/7
f 41/56/14 45/60/14 46/61/14
f 40/55/7 44/59/7 17/29/7
f 40/55/13 39/54/13 43/58/13
f 38/53/7 42/57/7 43/58/7
f 37/52/14 41/56/14 42/57/14
f 33/48/7 40/55/7 18/30/7
f 33/48/29 32/47/29 39/54/29
f 31/46/15 38/53/15 39/54/15
f 30/45/14 37/52/14 38/53/14
f 36/51/17 23/36/17 1/3/17
f 35/50/18 24/38/18 23/36/18
f 34/49/17 25/40/17 24/38/17
f 34/49/30 50/65/30 49/64/30
f 52/67/19 36/51/19 4/8/19
f 51/66/20 35/50/20 36/51/20
f 50/65/19 34/49/19 35/50/19
f 22/34/31 34/49/31 49/64/31
f 29/44/2 33/48/2 5/9/2
f 29/44/22 28/43/22 32/47/22
f 27/42/2 31/46/2 32/47/2
f 26/41/23 30/45/23 31/46/23
f 68/83/1 29/44/1 2/5/1
f 67/82/32 28/43/32 29/44/32
f 66/81/24 27/42/24 28/43/24
f 66/81/9 65/80/9 26/41/9
