# Blender 3.3.1
# www.blender.org
o cylinder29_copy33
v 1.529142 0.379721 -0.742134
v 1.352930 0.074513 -0.742134
v 1.000506 0.074513 -0.742134
v 0.824294 0.379721 -0.742134
v 1.000506 0.684929 -0.742134
v 1.352930 0.684929 -0.742134
v 1.529142 0.379721 -0.310037
v 1.352930 0.074513 -0.310037
v 1.000506 0.074513 -0.310037
v 0.824294 0.379721 -0.310037
v 1.000506 0.684929 -0.310037
v 1.352930 0.684929 -0.310037
v 1.364640 0.579720 -3.170470
v 1.320679 0.503577 -3.170469
v 1.232756 0.503577 -3.170469
v 1.188795 0.579720 -3.170469
v 1.232756 0.655864 -3.170469
v 1.320679 0.655864 -3.170469
v 1.364641 0.579721 -0.709132
v 1.320679 0.503577 -0.709132
v 1.232756 0.503577 -0.709132
v 1.188795 0.579721 -0.709132
v 1.232756 0.655864 -0.709132
v 1.320679 0.655864 -0.709132
v 1.164640 0.579720 -3.170469
v 1.120679 0.503577 -3.170469
v 1.032756 0.503577 -3.170469
v 0.988795 0.579720 -3.170469
v 1.032756 0.655864 -3.170469
v 1.120679 0.655864 -3.170469
v 1.164641 0.579721 -0.709132
v 1.120679 0.503577 -0.709132
v 1.032756 0.503577 -0.709132
v 0.988795 0.579721 -0.709132
v 1.032756 0.655864 -0.709132
v 1.120679 0.655864 -0.709132
v -0.561865 1.079515 -1.205926
v -0.392463 1.589004 -0.450865
v -0.554248 1.079516 1.813897
v -0.384846 1.589004 1.085802
v -0.561865 0.314647 -2.179172
v -0.554248 0.314648 1.813897
v -0.515613 -0.138880 -2.385098
v -0.384846 -0.138879 1.193668
v -0.384846 -0.406093 1.193668
v -0.407868 -0.820397 -2.220847
v -0.277101 -0.820396 0.593051
v -0.515613 -0.406093 -2.574790
v -0.407868 -0.820397 -2.410540
v -0.515613 -0.175906 -2.574790
v -0.472173 -0.592210 1.414237
v -0.364428 -1.092689 0.688691
v -0.515613 -0.406093 -2.396011
v -0.380385 -0.820396 0.307695
v -0.500473 -0.406093 0.442320
v -0.500473 -0.138879 0.444604
v -0.685015 0.314648 0.913225
v -0.515613 1.589004 0.556132
v -0.685015 1.079516 0.913225
v -0.685015 0.316710 -0.576319
v -0.503744 -0.138880 -0.322635
v -0.502509 -0.406093 0.098566
v -0.380756 -0.820396 0.236351
v -0.515613 1.589004 0.202177
v -0.685015 1.076294 -0.171512
v -0.795918 1.461950 0.637601
v -0.795918 1.843960 0.782239
v -1.535847 1.843960 0.782240
v -1.535847 1.461950 0.637601
v -0.795918 1.461950 1.804091
v -0.795918 1.843960 1.804091
v -1.535847 1.843960 1.804091
v -1.535847 1.461950 1.804091
v -1.535847 1.073895 -0.171394
v -0.795918 1.074475 -0.172482
v -0.795918 1.073895 1.804091
v -1.535847 1.073895 1.804091
v -0.795918 0.795142 1.470688
v -1.535847 0.795142 1.470688
v -1.535847 0.314892 -0.575891
v -0.795918 0.315472 -0.576979
v -0.795918 0.314893 1.470688
v -1.535847 0.314893 1.470688
v -1.535847 -0.077592 -0.355256
v -0.795918 -0.077592 -0.355256
v -0.795918 -0.077592 1.083351
v -1.535847 -0.077592 1.083351
v -1.535847 -0.077592 0.567522
v -0.795918 -0.077592 0.567522
v -0.795918 -0.344805 0.567522
v -1.535847 -0.344805 0.567522
v -1.535847 -0.344805 -0.183651
v -0.795918 -0.344805 -0.183651
v -1.535847 1.073895 0.631415
v -2.032283 1.461950 0.784551
v -2.032283 1.461950 1.530231
v -2.032283 1.689945 1.530230
v -2.032283 1.689945 0.866402
v -2.032283 1.222944 0.777603
v -2.032283 1.222944 1.530231
v -0.795918 1.456371 0.525151
v -1.535847 1.456371 0.525151
v -1.535847 0.314893 0.709484
v -1.535847 0.795142 0.631415
v -0.795918 0.314893 0.913225
v -0.795918 0.795142 0.913225
v -0.795918 1.073895 0.913225
v -1.535847 0.314892 0.066797
v -1.535847 0.793922 0.169806
v -1.697734 0.314893 0.709484
v -1.697734 0.795142 0.631415
v -1.697734 0.793922 0.169806
v -1.697734 0.314892 0.066797
v -0.398921 -0.820397 -1.421854
v -0.509470 -0.406093 -1.244392
v -0.511053 -0.138880 -1.532921
v -0.685015 0.315508 -1.510030
v -0.515613 1.589004 -0.230790
v -0.685015 1.078430 -0.857329
v -0.774069 -0.718537 -0.914976
v -0.774069 -0.820396 -0.914976
v -0.774069 -0.820396 -0.244251
v -0.774069 -0.718537 -0.244251
v 0.574150 1.079515 -1.205926
v 0.404748 1.589004 -0.450865
v 0.566534 1.079516 1.813897
v 0.397132 1.589004 1.085802
v 0.574150 0.314647 -2.179172
v 0.566534 0.314648 1.813897
v 0.527898 -0.138880 -2.385098
v 0.397132 -0.138879 1.193668
v 0.397132 -0.406093 1.193668
v 0.420154 -0.820397 -2.220847
v 0.289387 -0.820396 0.593051
v 0.527898 -0.406093 -2.574790
v 0.420154 -0.820397 -2.410540
v 0.527898 -0.175906 -2.574790
v 0.484459 -0.592210 1.414237
v 0.376714 -1.092689 0.688691
v 0.527898 -0.406093 -2.396011
v 0.392671 -0.820396 0.307695
v 0.512759 -0.406093 0.442320
v 0.512759 -0.138879 0.444604
v 0.697301 0.314648 0.913225
v 0.527899 1.589004 0.556132
v 0.697301 1.079516 0.913225
v 0.697301 0.316710 -0.576320
v 0.516030 -0.138880 -0.322635
v 0.514795 -0.406093 0.098566
v 0.393042 -0.820396 0.236351
v 0.527899 1.589004 0.202177
v 0.697301 1.076294 -0.171512
v 0.808204 1.461950 0.637601
v 0.808204 1.843960 0.782239
v 1.548133 1.843960 0.782239
v 1.548133 1.461950 0.637601
v 0.808204 1.461950 1.804091
v 0.808204 1.843960 1.804091
v 1.548133 1.843960 1.804091
v 1.548133 1.461950 1.804091
v 1.548133 1.073895 -0.171394
v 0.808204 1.074475 -0.172482
v 0.808204 1.073895 1.804091
v 1.548133 1.073895 1.804091
v 0.808204 0.795142 1.470687
v 1.548133 0.795142 1.470687
v 1.548133 0.314892 -0.575891
v 0.808204 0.315472 -0.576979
v 0.808204 0.314893 1.470687
v 1.548133 0.314893 1.470687
v 1.548133 -0.077592 -0.355256
v 0.808204 -0.077592 -0.355256
v 0.808204 -0.077592 1.083351
v 1.548133 -0.077592 1.083351
v 1.548133 -0.077592 0.567522
v 0.808204 -0.077592 0.567522
v 0.808204 -0.344805 0.567522
v 1.548133 -0.344805 0.567522
v 1.548133 -0.344805 -0.183651
v 0.808204 -0.344805 -0.183651
v 1.548133 1.073895 0.631414
v 2.044569 1.461950 0.784551
v 2.044569 1.461950 1.530230
v 2.044569 1.689945 1.530230
v 2.044569 1.689945 0.866401
v 2.044569 1.222944 0.777603
v 2.044569 1.222944 1.530230
v 0.808204 1.456371 0.525151
v 1.548133 1.456371 0.525151
v 1.548133 0.314893 0.709484
v 1.548133 0.795142 0.631414
v 0.808204 0.314893 0.913225
v 0.808204 0.795142 0.913225
v 0.808204 1.073895 0.913225
v 1.548133 0.314892 0.066797
v 1.548133 0.793922 0.169806
v 1.710020 0.314893 0.709484
v 1.710020 0.795142 0.631414
v 1.710020 0.793922 0.169806
v 1.710020 0.314892 0.066797
v 0.411207 -0.820397 -1.421854
v 0.521756 -0.406093 -1.244392
v 0.523339 -0.138880 -1.532921
v 0.697301 0.315508 -1.510031
v 0.527899 1.589004 -0.230790
v 0.697301 1.078430 -0.857329
v 0.786355 -0.718537 -0.914976
v 0.786355 -0.820396 -0.914976
v 0.786355 -0.820396 -0.244251
v 0.786355 -0.718537 -0.244251
v -1.346278 0.587762 -3.194994
v -1.302317 0.511619 -3.194994
v -1.214394 0.511619 -3.194994
v -1.170433 0.587762 -3.194994
v -1.214394 0.663906 -3.194994
v -1.302317 0.663906 -3.194994
v -1.346278 0.587763 -0.733657
v -1.302317 0.511619 -0.733657
v -1.214394 0.511619 -0.733657
v -1.170433 0.587763 -0.733657
v -1.214394 0.663906 -0.733657
v -1.302317 0.663906 -0.733657
v -1.510780 0.387763 -0.766659
v -1.334568 0.082555 -0.766659
v -0.982144 0.082555 -0.766659
v -0.805932 0.387763 -0.766659
v -0.982144 0.692971 -0.766659
v -1.334568 0.692971 -0.766659
v -1.510779 0.387763 -0.334561
v -1.334568 0.082555 -0.334561
v -0.982144 0.082555 -0.334561
v -0.805932 0.387763 -0.334561
v -0.982144 0.692971 -0.334562
v -1.334568 0.692971 -0.334561
v -1.146278 0.587762 -3.194994
v -1.102317 0.511619 -3.194994
v -1.014394 0.511619 -3.194994
v -0.970433 0.587762 -3.194994
v -1.014394 0.663906 -3.194994
v -1.102317 0.663906 -3.194994
v -1.146278 0.587763 -0.733657
v -1.102317 0.511619 -0.733657
v -1.014394 0.511619 -0.733657
v -0.970433 0.587763 -0.733657
v -1.014394 0.663906 -0.733657
v -1.102317 0.663906 -0.733657
vn 0.7924 -0.0000 0.6100
vn 0.3962 -0.6862 -0.6100
vn 0.7924 -0.0000 -0.6100
vn -0.3962 -0.6862 -0.6100
vn -0.3962 0.6862 -0.6100
vn 0.3962 -0.6862 0.6100
vn -0.3962 -0.6862 0.6100
vn -0.7924 -0.0000 -0.6100
vn -0.7924 -0.0000 0.6100
vn -0.3962 0.6862 0.6100
vn 0.3962 0.6862 -0.6100
vn 0.3962 0.6862 0.6100
vn -0.9317 0.3279 -0.1561
vn -0.2711 0.9082 -0.3190
vn -0.5367 0.6742 -0.5074
vn 0.5367 0.6742 -0.5074
vn -0.6579 0.4065 -0.6340
vn -0.5874 0.8062 -0.0707
vn 0.2711 0.9082 -0.3190
vn -0.5809 -0.3866 0.7164
vn 0.5779 0.3906 0.7165
vn -0.5779 0.3906 0.7165
vn -0.4166 0.8644 0.2815
vn -0.7808 0.5038 0.3694
vn -0.9887 -0.0932 -0.1176
vn 0.6579 0.4065 -0.6340
vn -0.8276 0.4270 -0.3644
vn -0.7602 -0.5328 0.3718
vn -0.9875 -0.1560 -0.0242
vn 0.8276 0.4270 -0.3644
vn -0.5882 0.5142 -0.6242
vn 0.6611 -0.4783 0.5781
vn -0.6611 -0.4783 0.5781
vn 0.7958 0.2910 0.5311
vn -0.7958 0.2910 0.5311
vn -0.9920 -0.1265 0.0023
vn -0.5053 -0.7344 -0.4530
vn -0.6129 -0.7902 0.0025
vn -0.9897 0.0556 -0.1317
vn 0.6129 -0.7902 0.0025
vn -0.5414 -0.8314 -0.1251
vn -0.6015 -0.7406 -0.2994
vn -0.7238 -0.6015 -0.3381
vn 0.6837 -0.1985 -0.7022
vn -0.6837 -0.1985 -0.7022
vn 0.5053 -0.7344 -0.4530
vn 0.5882 0.5142 -0.6242
vn 0.6783 -0.0106 0.7348
vn -0.6783 -0.0106 0.7348
vn 0.6015 -0.7406 -0.2994
vn -0.9782 -0.1806 0.1021
vn -0.5206 -0.8419 0.1423
vn -0.6164 -0.7821 0.0918
vn 0.6164 -0.7821 0.0918
vn -0.9759 -0.2103 0.0591
vn -0.9889 0.0326 0.1446
vn -0.8989 -0.3592 -0.2510
vn -0.9826 -0.1856 0.0049
vn 0.9045 -0.3016 0.3016
vn -0.5855 0.8107 -0.0003
vn -0.5923 0.8044 0.0459
vn 0.8994 0.3044 0.3137
vn 0.7071 -0.0000 0.7071
vn 0.0828 0.7780 -0.6227
vn -0.7537 0.6069 -0.2522
vn -0.9268 0.2719 0.2591
vn -0.7274 -0.6429 -0.2399
vn 0.5206 -0.8419 0.1423
vn 0.5855 0.8107 -0.0003
vn -0.4139 0.4706 -0.7792
vn 0.5988 0.6590 -0.4551
vn 0.8533 0.4216 -0.3069
vn 0.6599 0.7230 -0.2044
vn -0.2453 0.6717 0.6990
vn -0.1591 0.8151 -0.5571
vn -0.7704 0.4932 0.4039
vn -0.7229 -0.4803 -0.4967
vn -0.7714 0.1217 -0.6246
vn -0.7229 0.5602 -0.4044
vn 0.5774 0.5774 0.5774
vn -0.2494 -0.0000 0.9684
vn -0.3532 -0.4824 0.8016
vn -0.7682 -0.4969 0.4037
vn -0.6486 0.5350 -0.5413
vn -0.8785 0.3713 -0.3007
vn -0.9529 -0.2132 -0.2156
vn 0.2459 -0.1986 -0.9487
vn 0.8159 -0.2448 0.5238
vn 0.6231 -0.3312 0.7086
vn -0.8159 -0.2448 0.5238
vn 0.6308 -0.2946 0.7179
vn -0.6308 -0.2946 0.7179
vn -0.9228 -0.2497 0.2936
vn -0.7006 -0.3678 -0.6115
vn -0.9282 -0.2338 -0.2895
vn -0.6138 -0.0093 -0.7894
vn 0.7006 -0.3681 -0.6113
vn 0.9045 -0.3015 0.3015
vn 0.6297 -0.7167 0.2996
vn -0.6297 -0.7167 0.2996
vn -0.6135 -0.6931 -0.3786
vn -0.9045 -0.3015 0.3015
vn 0.6135 -0.6931 -0.3786
vn -0.5774 -0.5774 0.5774
vn 0.5774 -0.5774 0.5774
vn -0.8611 -0.0000 0.5084
vn -0.6599 0.7229 -0.2046
vn -0.5693 -0.5326 0.6262
vn -0.5861 0.6178 0.5241
vn -0.8854 0.3544 0.3007
vn -0.5670 -0.5176 -0.6408
vn -0.5895 0.6277 -0.5084
vn -0.9307 0.2738 -0.2425
vn 0.5414 -0.8314 -0.1251
vn 0.9887 -0.0932 -0.1176
vn 0.9317 0.3279 -0.1561
vn 0.7808 0.5038 0.3694
vn 0.4166 0.8644 0.2815
vn 0.5923 0.8044 0.0459
vn 0.9875 -0.1560 -0.0242
vn 0.7602 -0.5328 0.3718
vn 0.5809 -0.3866 0.7164
vn 0.9920 -0.1265 0.0023
vn 0.9759 -0.2103 0.0591
vn 0.7238 -0.6015 -0.3381
vn 0.9782 -0.1806 0.1021
vn 0.9897 0.0556 -0.1317
vn -0.9045 -0.3016 0.3016
vn -0.7071 -0.0000 0.7071
vn -0.8994 0.3044 0.3137
vn 0.7537 0.6069 -0.2522
vn 0.8989 -0.3592 -0.2510
vn 0.9826 -0.1856 0.0049
vn 0.9889 0.0326 0.1446
vn 0.9268 0.2719 0.2591
vn -0.0828 0.7780 -0.6227
vn -0.5988 0.6590 -0.4551
vn -0.8533 0.4216 -0.3069
vn 0.1591 0.8151 -0.5571
vn -0.5774 0.5774 0.5774
vn 0.7229 0.5602 -0.4044
vn 0.4139 0.4706 -0.7792
vn 0.9529 -0.2132 -0.2156
vn 0.6599 0.7229 -0.2046
vn 0.2494 -0.0000 0.9684
vn -0.6231 -0.3312 0.7086
vn 0.7704 0.4932 0.4039
vn 0.2453 0.6717 0.6990
vn 0.6486 0.5350 -0.5413
vn -0.2459 -0.1986 -0.9487
vn 0.5893 0.6285 -0.5077
vn 0.6138 -0.0093 -0.7894
vn -0.6599 0.7230 -0.2044
vn 0.3532 -0.4824 0.8016
vn 0.7682 -0.4969 0.4037
vn -0.7006 -0.3681 -0.6113
vn 0.9228 -0.2497 0.2936
vn 0.7006 -0.3678 -0.6115
vn 0.8785 0.3713 -0.3007
vn 0.8611 -0.0000 0.5084
vn 0.7714 0.1217 -0.6246
vn 0.7229 -0.4803 -0.4967
vn 0.5693 -0.5326 0.6262
vn 0.8854 0.3544 0.3007
vn 0.5861 0.6178 0.5241
vn 0.5670 -0.5176 -0.6408
vn 0.5895 0.6277 -0.5084
vn 0.7274 -0.6429 -0.2399
vn 0.9307 0.2738 -0.2425
vn 0.5874 0.8062 -0.0707
vn -0.7247 -0.6387 0.2587
vn 0.7247 -0.6387 0.2587
s 1
f 7//1 2//2 1//3
f 3//4 5//5 1//3
f 8//6 3//4 2//2
f 9//7 4//8 3//4
f 10//9 5//5 4//8
f 11//10 6//11 5//5
f 6//11 7//1 1//3
f 12//12 10//9 8//6
f 19//1 14//2 13//3
f 15//4 17//5 13//3
f 20//6 15//4 14//2
f 21//7 16//8 15//4
f 22//9 17//5 16//8
f 23//10 18//11 17//5
f 24//12 13//3 18//11
f 24//12 22//9 20//6
f 31//1 26//2 25//3
f 27//4 29//5 25//3
f 32//6 27//4 26//2
f 33//7 28//8 27//4
f 34//9 29//5 28//8
f 35//10 30//11 29//5
f 36//12 25//3 30//11
f 36//12 34//9 32//6
f 119//13 38//14 37//15
f 124//16 41//17 37//15
f 118//18 125//19 38//14
f 125//19 37//15 38//14
f 42//20 126//21 39//22
f 126//21 40//23 39//22
f 40//23 59//24 39//22
f 117//25 37//15 41//17
f 128//26 43//27 41//17
f 39//22 57//28 42//20
f 116//29 41//17 43//27
f 130//30 50//31 43//27
f 131//32 42//20 44//33
f 132//34 44//33 45//35
f 53//36 49//37 46//38
f 46//38 115//39 53//36
f 133//40 114//41 46//38
f 52//42 45//35 47//43
f 135//44 49//37 48//45
f 136//46 46//38 49//37
f 50//31 53//36 43//27
f 137//47 48//45 50//31
f 138//48 45//35 51//49
f 47//43 139//50 52//42
f 53//36 116//29 43//27
f 55//51 63//52 54//53
f 141//54 47//43 54//53
f 55//51 47//43 45//35
f 56//55 62//56 55//51
f 56//55 45//35 44//33
f 56//55 60//57 61//58
f 57//28 44//33 42//20
f 105//59 60//57 57//28
f 64//60 59//24 58//61
f 107//62 106//63 57//28
f 60//57 75//64 65//65
f 60//57 116//29 61//58
f 61//58 115//39 62//56
f 123//66 63//52 62//56
f 63//52 121//67 114//41
f 150//68 54//53 63//52
f 151//69 118//18 64//60
f 65//65 118//18 119//13
f 65//65 107//62 59//24
f 69//70 67//71 66//72
f 101//73 69//70 66//72
f 107//62 101//73 66//72
f 67//71 70//63 66//72
f 72//74 67//71 68//75
f 68//75 97//76 72//74
f 69//70 99//77 95//78
f 69//70 98//79 68//75
f 70//63 107//62 66//72
f 72//74 70//63 71//80
f 97//76 73//81 72//74
f 77//82 70//63 73//81
f 73//81 100//83 77//82
f 74//84 101//73 75//64
f 109//85 94//86 74//84
f 81//87 74//84 75//64
f 78//88 107//62 76//89
f 79//90 76//89 77//82
f 94//86 79//90 77//82
f 100//83 94//86 77//82
f 82//91 106//63 78//88
f 83//92 78//88 79//90
f 79//90 103//93 83//92
f 84//94 103//93 108//95
f 108//95 74//84 80//96
f 85//97 80//96 81//87
f 81//87 89//98 85//97
f 86//99 105//59 82//91
f 87//100 82//91 83//92
f 103//93 87//100 83//92
f 92//101 88//102 84//94
f 93//103 84//94 85//97
f 87//100 89//98 86//99
f 91//104 89//98 88//102
f 89//98 93//103 85//97
f 92//101 90//105 91//104
f 95//78 100//83 96//106
f 96//106 98//79 95//78
f 102//107 94//86 69//70
f 110//108 108//95 103//93
f 111//109 103//93 104//110
f 113//111 109//85 108//95
f 112//112 104//110 109//85
f 112//112 110//108 111//109
f 114//41 120//113 115//39
f 201//114 63//52 114//41
f 115//39 123//66 62//56
f 119//13 60//57 65//65
f 121//67 123//66 120//113
f 124//16 204//115 128//26
f 125//19 206//116 124//16
f 146//117 127//118 126//21
f 145//119 40//23 127//118
f 128//26 203//120 130//30
f 131//32 144//121 129//122
f 140//123 137//47 130//30
f 203//120 140//123 130//30
f 132//34 143//124 131//32
f 134//125 142//126 132//34
f 132//34 139//50 134//125
f 136//46 140//123 133//40
f 138//48 52//42 139//50
f 202//127 133//40 140//123
f 146//117 129//122 144//121
f 192//128 193//129 146//117
f 151//69 58//61 145//119
f 146//117 151//69 145//119
f 194//130 152//131 146//117
f 147//132 192//128 144//121
f 147//132 143//124 148//133
f 203//120 147//132 148//133
f 149//134 143//124 142//126
f 202//127 148//133 149//134
f 210//135 202//127 149//134
f 150//68 142//126 141//54
f 150//68 210//135 149//134
f 147//132 206//116 152//131
f 162//136 147//132 152//131
f 157//129 154//137 153//138
f 194//130 157//129 153//138
f 155//139 153//138 154//137
f 158//140 155//139 154//137
f 185//141 156//142 155//139
f 181//143 189//144 156//142
f 189//144 153//138 156//142
f 160//145 158//140 157//129
f 163//146 160//145 157//129
f 184//147 155//139 159//148
f 160//145 184//147 159//148
f 161//149 168//150 162//136
f 161//149 195//151 167//152
f 188//153 161//149 162//136
f 165//90 164//154 163//146
f 187//155 160//145 164//154
f 169//92 166//88 165//90
f 166//88 181//143 164//154
f 167//152 172//156 168//150
f 173//100 170//91 169//92
f 190//157 166//88 170//91
f 179//103 172//156 171//158
f 176//102 168//150 172//156
f 180//101 176//102 172//156
f 174//99 190//157 170//91
f 175//98 179//103 171//158
f 175//98 173//100 176//102
f 177//104 175//98 176//102
f 180//101 178//105 177//104
f 181//143 187//155 164//154
f 181//143 196//159 161//149
f 185//141 183//160 182//161
f 186//162 156//142 182//161
f 187//155 182//161 183//160
f 188//153 194//130 153//138
f 197//163 191//164 190//157
f 198//165 196//159 191//164
f 192//128 173//100 169//92
f 193//129 169//92 165//90
f 194//130 165//90 163//146
f 190//157 171//158 167//152
f 200//166 190//157 195//151
f 199//167 195//151 196//159
f 197//163 199//167 198//165
f 208//168 150//68 201//114
f 207//169 201//114 202//127
f 205//170 152//131 206//116
f 210//135 208//168 207//169
f 216//5 214//3 212//4
f 217//9 216//5 211//8
f 218//7 211//8 212//4
f 219//6 212//4 213//2
f 220//1 213//2 214//3
f 221//12 214//3 215//11
f 222//10 215//11 216//5
f 219//6 221//12 217//9
f 228//5 226//3 224//4
f 223//8 234//10 228//5
f 230//7 223//8 224//4
f 231//6 224//4 225//2
f 226//3 231//6 225//2
f 233//12 226//3 227//11
f 234//10 227//11 228//5
f 231//6 233//12 229//9
f 240//5 238//3 236//4
f 241//9 240//5 235//8
f 242//7 235//8 236//4
f 243//6 236//4 237//2
f 244//1 237//2 238//3
f 245//12 238//3 239//11
f 246//10 239//11 240//5
f 243//6 245//12 241//9
f 7//1 8//6 2//2
f 1//3 2//2 3//4
f 3//4 4//8 5//5
f 5//5 6//11 1//3
f 8//6 9//7 3//4
f 9//7 10//9 4//8
f 10//9 11//10 5//5
f 11//10 12//12 6//11
f 6//11 12//12 7//1
f 8//6 7//1 12//12
f 12//12 11//10 10//9
f 10//9 9//7 8//6
f 19//1 20//6 14//2
f 13//3 14//2 15//4
f 15//4 16//8 17//5
f 17//5 18//11 13//3
f 20//6 21//7 15//4
f 21//7 22//9 16//8
f 22//9 23//10 17//5
f 23//10 24//12 18//11
f 24//12 19//1 13//3
f 20//6 19//1 24//12
f 24//12 23//10 22//9
f 22//9 21//7 20//6
f 31//1 32//6 26//2
f 25//3 26//2 27//4
f 27//4 28//8 29//5
f 29//5 30//11 25//3
f 32//6 33//7 27//4
f 33//7 34//9 28//8
f 34//9 35//10 29//5
f 35//10 36//12 30//11
f 36//12 31//1 25//3
f 32//6 31//1 36//12
f 36//12 35//10 34//9
f 34//9 33//7 32//6
f 119//13 118//18 38//14
f 124//16 128//26 41//17
f 118//18 205//170 125//19
f 125//19 124//16 37//15
f 42//20 129//122 126//21
f 126//21 127//118 40//23
f 40//23 58//61 59//24
f 117//25 119//13 37//15
f 128//26 130//30 43//27
f 39//22 59//24 57//28
f 116//29 117//25 41//17
f 130//30 137//47 50//31
f 131//32 129//122 42//20
f 132//34 131//32 44//33
f 53//36 48//45 49//37
f 46//38 114//41 115//39
f 133//40 201//114 114//41
f 52//42 51//49 45//35
f 135//44 136//46 49//37
f 136//46 133//40 46//38
f 50//31 48//45 53//36
f 137//47 135//44 48//45
f 138//48 132//34 45//35
f 47//43 134//125 139//50
f 53//36 115//39 116//29
f 55//51 62//56 63//52
f 141//54 134//125 47//43
f 55//51 54//53 47//43
f 56//55 61//58 62//56
f 56//55 55//51 45//35
f 56//55 57//28 60//57
f 57//28 56//55 44//33
f 105//59 81//87 60//57
f 64//60 65//65 59//24
f 57//28 59//24 107//62
f 106//63 105//59 57//28
f 60//57 81//87 75//64
f 60//57 117//25 116//29
f 61//58 116//29 115//39
f 123//66 122//171 63//52
f 63//52 122//171 121//67
f 150//68 141//54 54//53
f 151//69 205//170 118//18
f 65//65 64//60 118//18
f 65//65 75//64 107//62
f 69//70 68//75 67//71
f 101//73 102//107 69//70
f 107//62 75//64 101//73
f 67//71 71//80 70//63
f 72//74 71//80 67//71
f 68//75 98//79 97//76
f 69//70 94//86 99//77
f 69//70 95//78 98//79
f 70//63 76//89 107//62
f 72//74 73//81 70//63
f 97//76 96//106 73//81
f 77//82 76//89 70//63
f 73//81 96//106 100//83
f 74//84 102//107 101//73
f 109//85 104//110 94//86
f 81//87 80//96 74//84
f 78//88 106//63 107//62
f 79//90 78//88 76//89
f 94//86 104//110 79//90
f 100//83 99//77 94//86
f 82//91 105//59 106//63
f 83//92 82//91 78//88
f 79//90 104//110 103//93
f 108//95 80//96 84//94
f 84//94 88//102 103//93
f 108//95 109//85 74//84
f 85//97 84//94 80//96
f 81//87 105//59 89//98
f 86//99 89//98 105//59
f 87//100 86//99 82//91
f 103//93 88//102 87//100
f 92//101 91//104 88//102
f 93//103 92//101 84//94
f 87//100 88//102 89//98
f 91//104 90//105 89//98
f 89//98 90//105 93//103
f 92//101 93//103 90//105
f 95//78 99//77 100//83
f 96//106 97//76 98//79
f 102//107 74//84 94//86
f 110//108 113//111 108//95
f 111//109 110//108 103//93
f 113//111 112//112 109//85
f 112//112 111//109 104//110
f 112//112 113//111 110//108
f 114//41 121//67 120//113
f 201//114 150//68 63//52
f 115//39 120//113 123//66
f 119//13 117//25 60//57
f 121//67 122//171 123//66
f 124//16 206//116 204//115
f 125//19 205//170 206//116
f 146//117 145//119 127//118
f 145//119 58//61 40//23
f 128//26 204//115 203//120
f 131//32 143//124 144//121
f 140//123 135//44 137//47
f 203//120 202//127 140//123
f 132//34 142//126 143//124
f 134//125 141//54 142//126
f 132//34 138//48 139//50
f 136//46 135//44 140//123
f 138//48 51//49 52//42
f 202//127 201//114 133//40
f 146//117 126//21 129//122
f 146//117 144//121 192//128
f 193//129 194//130 146//117
f 151//69 64//60 58//61
f 146//117 152//131 151//69
f 194//130 162//136 152//131
f 147//132 168//150 192//128
f 147//132 144//121 143//124
f 203//120 204//115 147//132
f 149//134 148//133 143//124
f 202//127 203//120 148//133
f 210//135 207//169 202//127
f 150//68 149//134 142//126
f 150//68 209//172 210//135
f 147//132 204//115 206//116
f 162//136 168//150 147//132
f 157//129 158//140 154//137
f 194//130 163//146 157//129
f 155//139 156//142 153//138
f 158//140 159//148 155//139
f 185//141 182//161 156//142
f 181//143 161//149 189//144
f 189//144 188//153 153//138
f 160//145 159//148 158//140
f 163//146 164//154 160//145
f 184//147 185//141 155//139
f 160//145 183//160 184//147
f 161//149 167//152 168//150
f 161//149 196//159 195//151
f 188//153 189//144 161//149
f 165//90 166//88 164//154
f 187//155 183//160 160//145
f 169//92 170//91 166//88
f 166//88 191//164 181//143
f 167//152 171//158 172//156
f 173//100 174//99 170//91
f 190//157 191//164 166//88
f 179//103 180//101 172//156
f 176//102 192//128 168//150
f 180//101 177//104 176//102
f 174//99 175//98 190//157
f 175//98 178//105 179//103
f 175//98 174//99 173//100
f 177//104 178//105 175//98
f 180//101 179//103 178//105
f 181//143 186//162 187//155
f 181//143 191//164 196//159
f 185//141 184//147 183//160
f 186//162 181//143 156//142
f 187//155 186//162 182//161
f 188//153 162//136 194//130
f 197//163 198//165 191//164
f 198//165 199//167 196//159
f 192//128 176//102 173//100
f 193//129 192//128 169//92
f 194//130 193//129 165//90
f 167//152 195//151 190//157
f 190//157 175//98 171//158
f 200//166 197//163 190//157
f 199//167 200//166 195//151
f 197//163 200//166 199//167
f 208//168 209//172 150//68
f 207//169 208//168 201//114
f 205//170 151//69 152//131
f 210//135 209//172 208//168
f 212//4 211//8 216//5
f 216//5 215//11 214//3
f 214//3 213//2 212//4
f 217//9 222//10 216//5
f 218//7 217//9 211//8
f 219//6 218//7 212//4
f 220//1 219//6 213//2
f 221//12 220//1 214//3
f 222//10 221//12 215//11
f 217//9 218//7 219//6
f 219//6 220//1 221//12
f 221//12 222//10 217//9
f 224//4 223//8 228//5
f 228//5 227//11 226//3
f 226//3 225//2 224//4
f 223//8 229//9 234//10
f 230//7 229//9 223//8
f 231//6 230//7 224//4
f 226//3 232//1 231//6
f 233//12 232//1 226//3
f 234//10 233//12 227//11
f 229//9 230//7 231//6
f 231//6 232//1 233//12
f 233//12 234//10 229//9
f 236//4 235//8 240//5
f 240//5 239//11 238//3
f 238//3 237//2 236//4
f 241//9 246//10 240//5
f 242//7 241//9 235//8
f 243//6 242//7 236//4
f 244//1 243//6 237//2
f 245//12 244//1 238//3
f 246//10 245//12 239//11
f 241//9 242//7 243//6
f 243//6 244//1 245//12
f 245//12 246//10 241//9
