# Blender 3.3.1
# www.blender.org
o Cylinder
v 0.000000 0.061210 0.500000
v 0.053010 0.030605 0.500000
v 0.053010 -0.030605 0.500000
v 0.000000 -0.061210 0.500000
v -0.053010 -0.030605 0.500000
v -0.053010 0.030605 0.500000
v 0.000000 0.016078 -0.500000
v 0.000000 0.100000 -0.245971
v 0.013924 0.008039 -0.500000
v 0.086603 0.050000 -0.245971
v 0.013924 -0.008039 -0.500000
v 0.086603 -0.050000 -0.245971
v -0.000000 -0.016078 -0.500000
v 0.000000 -0.100000 -0.245971
v -0.013924 -0.008039 -0.500000
v -0.086603 -0.050000 -0.245971
v -0.013924 0.008039 -0.500000
v -0.086603 0.050000 -0.245971
vn -0.8591 0.4960 -0.1260
vn -0.0000 0.7770 0.6294
vn -0.0000 0.9920 -0.1260
vn 0.6729 -0.3885 0.6294
vn -0.0000 -0.9920 -0.1260
vn 0.8591 -0.4960 -0.1260
vn -0.0000 -0.7770 0.6294
vn -0.8591 -0.4960 -0.1260
vn -0.6729 -0.3885 0.6294
vn 0.8591 0.4960 -0.1260
vn -0.0000 0.6869 -0.7268
vn 0.5949 0.3434 -0.7268
vn 0.5949 -0.3434 -0.7268
vn -0.0000 -0.6869 -0.7268
vn -0.5949 -0.3434 -0.7268
vn -0.5949 0.3434 -0.7268
vn -0.6729 0.3885 0.6294
vn 0.6729 0.3885 0.6294
vt -0.000000 1.000000
vt 0.250000 0.490000
vt 1.000000 1.000000
vt 0.457846 0.370000
vt 0.833333 1.000000
vt 0.457846 0.130000
vt 0.666667 1.000000
vt 0.500000 1.000000
vt 0.250000 0.010000
vt 0.333333 1.000000
vt 0.042154 0.130000
vt 0.166667 1.000000
vt 0.042154 0.370000
vt 0.930065 0.500000
vt 0.069935 0.500000
vt 0.750000 0.288588
vt 1.000000 0.536339
vt -0.000000 0.536339
vt 0.903268 0.500000
vt 0.763399 0.500000
vt 0.783419 0.269294
vt 0.833333 0.536339
vt 0.736601 0.500000
vt 0.596732 0.500000
vt 0.783419 0.230706
vt 0.666667 0.536339
vt 0.569935 0.500000
vt 0.430065 0.500000
vt 0.750000 0.211412
vt 0.500000 0.536339
vt 0.403268 0.500000
vt 0.263399 0.500000
vt 0.716582 0.230706
vt 0.333333 0.536339
vt 0.236601 0.500000
vt 0.096732 0.500000
vt 0.716582 0.269294
vt 0.166667 0.536339
s 1
f 18/38/1 1/1/2 8/18/3
f 3/7/4 14/30/5 12/26/6
f 4/8/7 16/34/8 14/30/5
f 5/10/9 18/38/1 16/34/8
f 1/2/2 5/11/9 3/6/4
f 10/22/10 3/7/4 12/26/6
f 1/3/2 10/22/10 8/17/3
f 10/22/10 7/14/11 8/17/3
f 12/26/6 9/20/12 10/22/10
f 14/30/5 11/24/13 12/26/6
f 16/34/8 13/28/14 14/30/5
f 18/38/1 15/32/15 16/34/8
f 8/18/3 17/36/16 18/38/1
f 9/21/12 13/29/14 17/37/16
f 18/38/1 6/12/17 1/1/2
f 3/7/4 4/8/7 14/30/5
f 4/8/7 5/10/9 16/34/8
f 5/10/9 6/12/17 18/38/1
f 3/6/4 2/4/18 1/2/2
f 1/2/2 6/13/17 5/11/9
f 5/11/9 4/9/7 3/6/4
f 10/22/10 2/5/18 3/7/4
f 1/3/2 2/5/18 10/22/10
f 10/22/10 9/19/12 7/14/11
f 12/26/6 11/23/13 9/20/12
f 14/30/5 13/27/14 11/24/13
f 16/34/8 15/31/15 13/28/14
f 18/38/1 17/35/16 15/32/15
f 8/18/3 7/15/11 17/36/16
f 17/37/16 7/16/11 9/21/12
f 9/21/12 11/25/13 13/29/14
f 13/29/14 15/33/15 17/37/16
