# Blender 3.3.1
# www.blender.org
o Cube
v -0.030286 -0.030286 0.212005
v -0.030286 0.030286 0.212005
v 0.030286 -0.030286 0.212005
v 0.030286 0.030286 0.212005
v -0.013024 -0.013024 -0.212005
v -0.030286 -0.030286 -0.091168
v -0.013024 0.013024 -0.212005
v -0.030286 0.030286 -0.091168
v 0.013024 -0.013024 -0.212005
v 0.030286 -0.030286 -0.091168
v 0.030286 0.030286 -0.091168
v 0.013024 0.013024 -0.212005
vn -0.0000 -0.0000 -1.0000
vn -0.0000 1.0000 -0.0000
vn -0.0000 -0.0000 1.0000
vn -1.0000 -0.0000 -0.0000
vn 1.0000 -0.0000 -0.0000
vn -0.9899 -0.0000 -0.1414
vn -0.0000 -0.9899 -0.1414
vn -0.0000 0.9899 -0.1414
vn 0.9899 -0.0000 -0.1414
vn -0.0000 -1.0000 -0.0000
vt 0.375000 0.000000
vt 0.375000 1.000000
vt 0.125000 0.750000
vt 0.875000 0.750000
vt 0.625000 1.000000
vt 0.625000 0.000000
vt 0.375000 0.750000
vt 0.625000 0.750000
vt 0.446247 0.321247
vt 0.125000 0.571247
vt 0.375000 0.178753
vt 0.375000 0.250000
vt 0.553753 0.321247
vt 0.625000 0.250000
vt 0.875000 0.571247
vt 0.625000 0.178753
vt 0.446247 0.428753
vt 0.375000 0.500000
vt 0.375000 0.571247
vt 0.625000 0.571247
vt 0.625000 0.500000
vt 0.553753 0.428753
s 0
f 7/13/1 9/17/1 5/9/1
f 8/15/2 4/8/2 11/20/2
f 4/8/3 1/2/3 3/7/3
f 2/6/4 6/11/4 1/1/4
f 11/20/5 3/7/5 10/19/5
f 5/9/6 8/16/6 7/13/6
f 6/12/7 9/17/7 10/18/7
f 11/21/8 7/13/8 8/14/8
f 10/19/9 12/22/9 11/20/9
f 10/19/10 1/3/10 6/10/10
f 7/13/1 12/22/1 9/17/1
f 8/15/2 2/4/2 4/8/2
f 4/8/3 2/5/3 1/2/3
f 2/6/4 8/16/4 6/11/4
f 11/20/5 4/8/5 3/7/5
f 5/9/6 6/11/6 8/16/6
f 6/12/7 5/9/7 9/17/7
f 11/21/8 12/22/8 7/13/8
f 10/19/9 9/17/9 12/22/9
f 10/19/10 3/7/10 1/3/10
