# Blender 3.3.1
# www.blender.org
o Torus
v 1.120000 0.000000 0.000000
v 1.071099 0.239553 0.000000
v 0.937500 0.414917 0.000000
v 0.755000 0.479105 0.000000
v 0.755000 -0.479105 0.000000
v 0.937500 -0.414917 0.000000
v 1.071099 -0.239553 0.000000
v 0.991711 0.000000 -0.520490
v 0.948411 0.239553 -0.497765
v 0.830115 0.414917 -0.435678
v 0.668519 0.479105 -0.350866
v 0.668519 -0.479105 -0.350866
v 0.830115 -0.414917 -0.435678
v 0.948411 -0.239553 -0.497765
v 0.636232 0.000000 -0.921742
v 0.608454 0.239553 -0.881498
v 0.532561 0.414917 -0.771547
v 0.428889 0.479105 -0.621353
v 0.428889 -0.479105 -0.621353
v 0.532561 -0.414917 -0.771547
v 0.608454 -0.239553 -0.881498
v 0.135001 0.000000 -1.111834
v 0.129107 0.239553 -1.063290
v 0.113003 0.414917 -0.930665
v 0.091005 0.479105 -0.749495
v 0.091005 -0.479105 -0.749495
v 0.113003 -0.414917 -0.930665
v 0.129107 -0.239553 -1.063290
v -0.397158 0.000000 -1.047218
v -0.379817 0.239553 -1.001495
v -0.332442 0.414917 -0.876578
v -0.267727 0.479105 -0.705937
v -0.267727 -0.479105 -0.705937
v -0.332442 -0.414917 -0.876578
v -0.379817 -0.239553 -1.001495
v -0.838332 0.000000 -0.742697
v -0.801730 0.239553 -0.710270
v -0.701729 0.414917 -0.621677
v -0.565126 0.479105 -0.500657
v -0.565126 -0.479105 -0.500657
v -0.701729 -0.414917 -0.621677
v -0.801730 -0.239553 -0.710270
v -1.087455 0.000000 -0.268034
v -1.039975 0.239553 -0.256331
v -0.910258 0.414917 -0.224358
v -0.733061 0.479105 -0.180683
v -0.733061 -0.479105 -0.180683
v -0.910258 -0.414917 -0.224358
v -1.039975 -0.239553 -0.256331
vn -0.8988 -0.3783 0.2215
vn -0.8855 -0.0000 0.4647
vn -0.9709 -0.0000 0.2393
vn -0.5604 -0.7742 0.2941
vn -0.8161 -0.3880 0.4283
vn -0.6253 -0.7650 0.1541
vn -0.2938 -0.9434 0.1542
vn -0.6253 0.7650 0.1541
vn -0.2938 0.9434 0.1542
vn -0.3307 0.9402 0.0815
vn -0.8988 0.3783 0.2215
vn -0.5604 0.7742 0.2941
vn -0.8161 0.3880 0.4283
vn -0.5681 -0.0000 0.8230
vn -0.3595 -0.7742 0.5209
vn -0.5236 -0.3880 0.7585
vn -0.1885 0.9434 0.2731
vn -0.3595 0.7742 0.5209
vn -0.5236 0.3880 0.7585
vn -0.1111 -0.3880 0.9150
vn -0.1205 -0.0000 0.9927
vn -0.1885 -0.9434 0.2731
vn -0.0763 -0.7742 0.6283
vn -0.0400 0.9434 0.3294
vn -0.1111 0.3880 0.9150
vn -0.0763 0.7742 0.6283
vn 0.3546 -0.0000 0.9350
vn 0.3268 -0.3880 0.8618
vn -0.0400 -0.9434 0.3294
vn 0.2244 -0.7742 0.5918
vn 0.1177 0.9434 0.3102
vn 0.2244 0.7742 0.5918
vn 0.3268 0.3880 0.8618
vn 0.7485 -0.0000 0.6631
vn 0.6899 -0.3880 0.6112
vn 0.1177 -0.9434 0.3102
vn 0.4737 -0.7742 0.4197
vn 0.2483 0.9434 0.2200
vn 0.4737 0.7742 0.4197
vn 0.6899 0.3880 0.6112
vn 0.8196 -0.3783 0.4302
vn 0.8855 -0.0000 0.4647
vn 0.3016 -0.9402 0.1583
vn 0.5703 -0.7650 0.2993
vn 0.3016 0.9402 0.1583
vn 0.5703 0.7650 0.2993
vn 0.8196 0.3783 0.4302
vn -0.3307 -0.9402 0.0815
vn 0.2483 -0.9434 0.2200
vt 0.162680 0.500000
vt 0.162680 0.638719
vt 0.162680 0.777439
vt 0.162680 0.916158
vt 0.162680 0.083842
vt 0.162680 0.222561
vt 0.162680 0.361281
vt 0.364864 0.500000
vt 0.364864 0.638719
vt 0.364864 0.777439
vt 0.364864 0.916158
vt 0.364864 0.083842
vt 0.364864 0.222561
vt 0.364864 0.361281
vt 0.567047 0.500000
vt 0.567047 0.638719
vt 0.567047 0.777439
vt 0.567047 0.916158
vt 0.567047 0.083842
vt 0.567047 0.222561
vt 0.567047 0.361281
vt 0.769231 0.500000
vt 0.769231 0.638719
vt 0.769231 0.777439
vt 0.769231 0.916158
vt 0.769231 0.083842
vt 0.769231 0.222561
vt 0.769231 0.361281
vt 0.971414 0.500000
vt 0.971414 0.638719
vt 0.971414 0.777439
vt 0.971414 0.916158
vt 0.971414 0.083842
vt 0.971414 0.222561
vt 0.971414 0.361281
vt 1.173598 0.500000
vt 1.173598 0.638719
vt 1.173598 0.777439
vt 1.173598 0.916158
vt 1.173598 0.083842
vt 1.173598 0.222561
vt 1.173598 0.361281
vt 1.375781 0.500000
vt 1.375781 0.638719
vt 1.375781 0.777439
vt 1.375781 0.916158
vt 1.375781 0.083842
vt 1.375781 0.222561
vt 1.375781 0.361281
s 1
f 2/2/1 8/8/2 1/1/3
f 2/2/1 10/10/4 9/9/5
f 3/3/6 11/11/7 10/10/4
f 6/6/8 12/12/9 5/5/10
f 7/7/11 13/13/12 6/6/8
f 1/1/3 14/14/13 7/7/11
f 9/9/5 15/15/14 8/8/2
f 9/9/5 17/17/15 16/16/16
f 11/11/7 17/17/15 10/10/4
f 13/13/12 19/19/17 12/12/9
f 14/14/13 20/20/18 13/13/12
f 8/8/2 21/21/19 14/14/13
f 15/15/14 23/23/20 22/22/21
f 17/17/15 23/23/20 16/16/16
f 18/18/22 24/24/23 17/17/15
f 20/20/18 26/26/24 19/19/17
f 20/20/18 28/28/25 27/27/26
f 15/15/14 28/28/25 21/21/19
f 23/23/20 29/29/27 22/22/21
f 24/24/23 30/30/28 23/23/20
f 25/25/29 31/31/30 24/24/23
f 27/27/26 33/33/31 26/26/24
f 28/28/25 34/34/32 27/27/26
f 22/22/21 35/35/33 28/28/25
f 30/30/28 36/36/34 29/29/27
f 31/31/30 37/37/35 30/30/28
f 32/32/36 38/38/37 31/31/30
f 34/34/32 40/40/38 33/33/31
f 35/35/33 41/41/39 34/34/32
f 29/29/27 42/42/40 35/35/33
f 36/36/34 44/44/41 43/43/42
f 38/38/37 44/44/41 37/37/35
f 38/38/37 46/46/43 45/45/44
f 41/41/39 47/47/45 40/40/38
f 42/42/40 48/48/46 41/41/39
f 36/36/34 49/49/47 42/42/40
f 2/2/1 9/9/5 8/8/2
f 2/2/1 3/3/6 10/10/4
f 3/3/6 4/4/48 11/11/7
f 6/6/8 13/13/12 12/12/9
f 7/7/11 14/14/13 13/13/12
f 1/1/3 8/8/2 14/14/13
f 9/9/5 16/16/16 15/15/14
f 9/9/5 10/10/4 17/17/15
f 11/11/7 18/18/22 17/17/15
f 13/13/12 20/20/18 19/19/17
f 14/14/13 21/21/19 20/20/18
f 8/8/2 15/15/14 21/21/19
f 15/15/14 16/16/16 23/23/20
f 17/17/15 24/24/23 23/23/20
f 18/18/22 25/25/29 24/24/23
f 20/20/18 27/27/26 26/26/24
f 20/20/18 21/21/19 28/28/25
f 15/15/14 22/22/21 28/28/25
f 23/23/20 30/30/28 29/29/27
f 24/24/23 31/31/30 30/30/28
f 25/25/29 32/32/36 31/31/30
f 27/27/26 34/34/32 33/33/31
f 28/28/25 35/35/33 34/34/32
f 22/22/21 29/29/27 35/35/33
f 30/30/28 37/37/35 36/36/34
f 31/31/30 38/38/37 37/37/35
f 32/32/36 39/39/49 38/38/37
f 34/34/32 41/41/39 40/40/38
f 35/35/33 42/42/40 41/41/39
f 29/29/27 36/36/34 42/42/40
f 36/36/34 37/37/35 44/44/41
f 38/38/37 45/45/44 44/44/41
f 38/38/37 39/39/49 46/46/43
f 41/41/39 48/48/46 47/47/45
f 42/42/40 49/49/47 48/48/46
f 36/36/34 43/43/42 49/49/47
