# Blender 3.1.0
# www.blender.org
o Cylinder
v 0.000000 0.000000 -1.000000
v 0.000000 1.000000 -1.000000
v 0.098017 0.000000 -0.995185
v 0.098017 1.000000 -0.995185
v 0.195090 0.000000 -0.980785
v 0.195090 1.000000 -0.980785
v 0.290285 0.000000 -0.956940
v 0.290285 1.000000 -0.956940
v 0.382683 0.000000 -0.923880
v 0.382683 1.000000 -0.923880
v 0.471397 0.000000 -0.881921
v 0.471397 1.000000 -0.881921
v 0.555570 0.000000 -0.831470
v 0.555570 1.000000 -0.831470
v 0.634393 0.000000 -0.773010
v 0.634393 1.000000 -0.773010
v 0.707107 0.000000 -0.707107
v 0.707107 1.000000 -0.707107
v 0.773010 0.000000 -0.634393
v 0.773010 1.000000 -0.634393
v 0.831470 0.000000 -0.555570
v 0.831470 1.000000 -0.555570
v 0.881921 0.000000 -0.471397
v 0.881921 1.000000 -0.471397
v 0.923880 0.000000 -0.382683
v 0.923880 1.000000 -0.382683
v 0.956940 0.000000 -0.290285
v 0.956940 1.000000 -0.290285
v 0.980785 0.000000 -0.195090
v 0.980785 1.000000 -0.195090
v 0.995185 0.000000 -0.098017
v 0.995185 1.000000 -0.098017
v 1.000000 0.000000 0.000000
v 1.000000 1.000000 0.000000
v 0.995185 0.000000 0.098017
v 0.995185 1.000000 0.098017
v 0.980785 0.000000 0.195090
v 0.980785 1.000000 0.195090
v 0.956940 0.000000 0.290285
v 0.956940 1.000000 0.290285
v 0.923880 0.000000 0.382683
v 0.923880 1.000000 0.382683
v 0.881921 0.000000 0.471397
v 0.881921 1.000000 0.471397
v 0.831470 0.000000 0.555570
v 0.831470 1.000000 0.555570
v 0.773010 0.000000 0.634393
v 0.773010 1.000000 0.634393
v 0.707107 0.000000 0.707107
v 0.707107 1.000000 0.707107
v 0.634393 0.000000 0.773010
v 0.634393 1.000000 0.773010
v 0.555570 0.000000 0.831470
v 0.555570 1.000000 0.831470
v 0.471397 0.000000 0.881921
v 0.471397 1.000000 0.881921
v 0.382683 0.000000 0.923880
v 0.382683 1.000000 0.923880
v 0.290285 0.000000 0.956940
v 0.290285 1.000000 0.956940
v 0.195090 0.000000 0.980785
v 0.195090 1.000000 0.980785
v 0.098017 0.000000 0.995185
v 0.098017 1.000000 0.995185
v -0.000000 0.000000 1.000000
v -0.000000 1.000000 1.000000
v -0.098017 0.000000 0.995185
v -0.098017 1.000000 0.995185
v -0.195090 0.000000 0.980785
v -0.195090 1.000000 0.980785
v -0.290285 0.000000 0.956940
v -0.290285 1.000000 0.956940
v -0.382683 0.000000 0.923880
v -0.382683 1.000000 0.923880
v -0.471397 0.000000 0.881921
v -0.471397 1.000000 0.881921
v -0.555570 0.000000 0.831470
v -0.555570 1.000000 0.831470
v -0.634393 0.000000 0.773011
v -0.634393 1.000000 0.773011
v -0.707107 0.000000 0.707107
v -0.707107 1.000000 0.707107
v -0.773010 0.000000 0.634393
v -0.773010 1.000000 0.634393
v -0.831469 0.000000 0.555570
v -0.831469 1.000000 0.555570
v -0.881921 0.000000 0.471397
v -0.881921 1.000000 0.471397
v -0.923880 0.000000 0.382684
v -0.923880 1.000000 0.382684
v -0.956940 0.000000 0.290285
v -0.956940 1.000000 0.290285
v -0.980785 0.000000 0.195090
v -0.980785 1.000000 0.195090
v -0.995185 0.000000 0.098017
v -0.995185 1.000000 0.098017
v -1.000000 0.000000 -0.000000
v -1.000000 1.000000 -0.000000
v -0.995185 0.000000 -0.098017
v -0.995185 1.000000 -0.098017
v -0.980785 0.000000 -0.195090
v -0.980785 1.000000 -0.195090
v -0.956940 0.000000 -0.290285
v -0.956940 1.000000 -0.290285
v -0.923879 0.000000 -0.382684
v -0.923879 1.000000 -0.382684
v -0.881921 0.000000 -0.471397
v -0.881921 1.000000 -0.471397
v -0.831470 0.000000 -0.555570
v -0.831470 1.000000 -0.555570
v -0.773010 0.000000 -0.634393
v -0.773010 1.000000 -0.634393
v -0.707107 0.000000 -0.707107
v -0.707107 1.000000 -0.707107
v -0.634393 0.000000 -0.773011
v -0.634393 1.000000 -0.773011
v -0.555570 0.000000 -0.831470
v -0.555570 1.000000 -0.831470
v -0.471397 0.000000 -0.881921
v -0.471397 1.000000 -0.881921
v -0.382683 0.000000 -0.923880
v -0.382683 1.000000 -0.923880
v -0.290285 0.000000 -0.956940
v -0.290285 1.000000 -0.956940
v -0.195090 0.000000 -0.980785
v -0.195090 1.000000 -0.980785
v -0.098017 0.000000 -0.995185
v -0.098017 1.000000 -0.995185
vn -0.0980 -0.0000 0.9952
vn -0.0000 -0.0000 1.0000
vn -0.1951 -0.0000 0.9808
vn -0.2903 -0.0000 0.9569
vn -0.3827 -0.0000 0.9239
vn -0.4714 -0.0000 0.8819
vn -0.5556 -0.0000 0.8315
vn -0.6344 -0.0000 0.7730
vn -0.7071 -0.0000 0.7071
vn -0.7730 -0.0000 0.6344
vn -0.8315 -0.0000 0.5556
vn -0.8819 -0.0000 0.4714
vn -0.9239 -0.0000 0.3827
vn -0.9569 -0.0000 0.2903
vn -0.9808 -0.0000 0.1951
vn -0.9952 -0.0000 0.0980
vn -1.0000 -0.0000 -0.0000
vn -0.9952 -0.0000 -0.0980
vn -0.9808 -0.0000 -0.1951
vn -0.9569 -0.0000 -0.2903
vn -0.9239 -0.0000 -0.3827
vn -0.8819 -0.0000 -0.4714
vn -0.8315 -0.0000 -0.5556
vn -0.7730 -0.0000 -0.6344
vn -0.7071 -0.0000 -0.7071
vn -0.6344 -0.0000 -0.7730
vn -0.5556 -0.0000 -0.8315
vn -0.4714 -0.0000 -0.8819
vn -0.3827 -0.0000 -0.9239
vn -0.2903 -0.0000 -0.9569
vn -0.1951 -0.0000 -0.9808
vn -0.0980 -0.0000 -0.9952
vn -0.0000 -0.0000 -1.0000
vn 0.0980 -0.0000 -0.9952
vn 0.1951 -0.0000 -0.9808
vn 0.2903 -0.0000 -0.9569
vn 0.3827 -0.0000 -0.9239
vn 0.4714 -0.0000 -0.8819
vn 0.5556 -0.0000 -0.8315
vn 0.6344 -0.0000 -0.7730
vn 0.7071 -0.0000 -0.7071
vn 0.7730 -0.0000 -0.6344
vn 0.8315 -0.0000 -0.5556
vn 0.8819 -0.0000 -0.4714
vn 0.9239 -0.0000 -0.3827
vn 0.9569 -0.0000 -0.2903
vn 0.9808 -0.0000 -0.1951
vn 0.9952 -0.0000 -0.0980
vn 1.0000 -0.0000 -0.0000
vn 0.9952 -0.0000 0.0980
vn 0.9808 -0.0000 0.1951
vn 0.9569 -0.0000 0.2903
vn 0.9239 -0.0000 0.3827
vn 0.8819 -0.0000 0.4714
vn 0.8315 -0.0000 0.5556
vn 0.7730 -0.0000 0.6344
vn 0.7071 -0.0000 0.7071
vn 0.6344 -0.0000 0.7730
vn 0.5556 -0.0000 0.8315
vn 0.4714 -0.0000 0.8819
vn 0.3827 -0.0000 0.9239
vn 0.2903 -0.0000 0.9569
vn 0.1951 -0.0000 0.9808
vn 0.0980 -0.0000 0.9952
vt 0.159250 0.015667
vt 0.000044 0.015664
vt 0.159249 0.031290
vt 0.000044 0.031288
vt 0.159249 0.046914
vt 0.000043 0.046911
vt 0.159249 0.062538
vt 0.000043 0.062535
vt 0.159248 0.078162
vt 0.000043 0.078159
vt 0.159248 0.093785
vt 0.000043 0.093783
vt 0.159248 0.109409
vt 0.000042 0.109407
vt 0.159248 0.125033
vt 0.000042 0.125030
vt 0.159247 0.140656
vt 0.000042 0.140654
vt 0.159247 0.156280
vt 0.000042 0.156278
vt 0.159247 0.171904
vt 0.000042 0.171902
vt 0.159247 0.187527
vt 0.000041 0.187525
vt 0.159247 0.203151
vt 0.000041 0.203149
vt 0.159247 0.218775
vt 0.000041 0.218773
vt 0.159246 0.234398
vt 0.000041 0.234397
vt 0.159246 0.250022
vt 0.000041 0.250021
vt 0.159246 0.265646
vt 0.000041 0.265644
vt 0.159246 0.281269
vt 0.000041 0.281268
vt 0.159246 0.296893
vt 0.000040 0.296892
vt 0.159246 0.312517
vt 0.000040 0.312516
vt 0.159246 0.328141
vt 0.000040 0.328140
vt 0.159246 0.343764
vt 0.000040 0.343763
vt 0.159245 0.359388
vt 0.000040 0.359387
vt 0.159245 0.375012
vt 0.000040 0.375011
vt 0.159245 0.390635
vt 0.000040 0.390635
vt 0.159245 0.406259
vt 0.000040 0.406258
vt 0.159245 0.421883
vt 0.000040 0.421882
vt 0.159245 0.437506
vt 0.000040 0.437506
vt 0.159245 0.453130
vt 0.000040 0.453130
vt 0.159245 0.468754
vt 0.000040 0.468754
vt 0.159245 0.484377
vt 0.000040 0.484377
vt 0.159245 0.500001
vt 0.000040 0.500001
vt 0.159245 0.515625
vt 0.000040 0.515625
vt 0.159245 0.531248
vt 0.000040 0.531249
vt 0.159245 0.546872
vt 0.000040 0.546872
vt 0.159245 0.562496
vt 0.000040 0.562496
vt 0.159245 0.578119
vt 0.000040 0.578120
vt 0.159245 0.593743
vt 0.000040 0.593744
vt 0.159245 0.609367
vt 0.000040 0.609367
vt 0.159246 0.624990
vt 0.000040 0.624991
vt 0.159246 0.640614
vt 0.000040 0.640615
vt 0.159246 0.656237
vt 0.000041 0.656238
vt 0.159246 0.671861
vt 0.000041 0.671862
vt 0.159246 0.687485
vt 0.000041 0.687486
vt 0.159246 0.703108
vt 0.000041 0.703110
vt 0.159246 0.718732
vt 0.000041 0.718733
vt 0.159246 0.734356
vt 0.000041 0.734357
vt 0.159246 0.749979
vt 0.000041 0.749981
vt 0.159247 0.765603
vt 0.000042 0.765605
vt 0.159247 0.781227
vt 0.000042 0.781228
vt 0.159247 0.796850
vt 0.000042 0.796852
vt 0.159247 0.812474
vt 0.000042 0.812476
vt 0.159247 0.828097
vt 0.000042 0.828099
vt 0.159248 0.843721
vt 0.000043 0.843723
vt 0.159248 0.859345
vt 0.000043 0.859347
vt 0.159248 0.874968
vt 0.000043 0.874971
vt 0.159248 0.890592
vt 0.000043 0.890594
vt 0.159248 0.906216
vt 0.000044 0.906218
vt 0.159249 0.921839
vt 0.000044 0.921842
vt 0.159249 0.937463
vt 0.000044 0.937465
vt 0.159249 0.953086
vt 0.000044 0.953089
vt 0.159249 0.968710
vt 0.000045 0.968713
vt 0.159250 0.984334
vt 0.000045 0.984336
vt 0.159250 0.000043
vt 0.159250 0.999957
vt 0.000045 0.999960
vt 0.000044 0.000040
s 1
f 3/3/1 2/2/2 1/1/2
f 5/5/3 4/4/1 3/3/1
f 7/7/4 6/6/3 5/5/3
f 9/9/5 8/8/4 7/7/4
f 11/11/6 10/10/5 9/9/5
f 13/13/7 12/12/6 11/11/6
f 15/15/8 14/14/7 13/13/7
f 17/17/9 16/16/8 15/15/8
f 19/19/10 18/18/9 17/17/9
f 21/21/11 20/20/10 19/19/10
f 23/23/12 22/22/11 21/21/11
f 25/25/13 24/24/12 23/23/12
f 27/27/14 26/26/13 25/25/13
f 29/29/15 28/28/14 27/27/14
f 31/31/16 30/30/15 29/29/15
f 33/33/17 32/32/16 31/31/16
f 35/35/18 34/34/17 33/33/17
f 37/37/19 36/36/18 35/35/18
f 39/39/20 38/38/19 37/37/19
f 41/41/21 40/40/20 39/39/20
f 43/43/22 42/42/21 41/41/21
f 45/45/23 44/44/22 43/43/22
f 47/47/24 46/46/23 45/45/23
f 49/49/25 48/48/24 47/47/24
f 51/51/26 50/50/25 49/49/25
f 53/53/27 52/52/26 51/51/26
f 55/55/28 54/54/27 53/53/27
f 57/57/29 56/56/28 55/55/28
f 59/59/30 58/58/29 57/57/29
f 61/61/31 60/60/30 59/59/30
f 63/63/32 62/62/31 61/61/31
f 65/65/33 64/64/32 63/63/32
f 67/67/34 66/66/33 65/65/33
f 69/69/35 68/68/34 67/67/34
f 71/71/36 70/70/35 69/69/35
f 73/73/37 72/72/36 71/71/36
f 75/75/38 74/74/37 73/73/37
f 77/77/39 76/76/38 75/75/38
f 79/79/40 78/78/39 77/77/39
f 81/81/41 80/80/40 79/79/40
f 83/83/42 82/82/41 81/81/41
f 85/85/43 84/84/42 83/83/42
f 87/87/44 86/86/43 85/85/43
f 89/89/45 88/88/44 87/87/44
f 91/91/46 90/90/45 89/89/45
f 93/93/47 92/92/46 91/91/46
f 95/95/48 94/94/47 93/93/47
f 97/97/49 96/96/48 95/95/48
f 99/99/50 98/98/49 97/97/49
f 101/101/51 100/100/50 99/99/50
f 103/103/52 102/102/51 101/101/51
f 105/105/53 104/104/52 103/103/52
f 107/107/54 106/106/53 105/105/53
f 109/109/55 108/108/54 107/107/54
f 111/111/56 110/110/55 109/109/55
f 113/113/57 112/112/56 111/111/56
f 115/115/58 114/114/57 113/113/57
f 117/117/59 116/116/58 115/115/58
f 119/119/60 118/118/59 117/117/59
f 121/121/61 120/120/60 119/119/60
f 123/123/62 122/122/61 121/121/61
f 125/125/63 124/124/62 123/123/62
f 127/128/64 126/126/63 125/125/63
f 1/1/2 128/130/64 127/127/64
f 3/3/1 4/4/1 2/2/2
f 5/5/3 6/6/3 4/4/1
f 7/7/4 8/8/4 6/6/3
f 9/9/5 10/10/5 8/8/4
f 11/11/6 12/12/6 10/10/5
f 13/13/7 14/14/7 12/12/6
f 15/15/8 16/16/8 14/14/7
f 17/17/9 18/18/9 16/16/8
f 19/19/10 20/20/10 18/18/9
f 21/21/11 22/22/11 20/20/10
f 23/23/12 24/24/12 22/22/11
f 25/25/13 26/26/13 24/24/12
f 27/27/14 28/28/14 26/26/13
f 29/29/15 30/30/15 28/28/14
f 31/31/16 32/32/16 30/30/15
f 33/33/17 34/34/17 32/32/16
f 35/35/18 36/36/18 34/34/17
f 37/37/19 38/38/19 36/36/18
f 39/39/20 40/40/20 38/38/19
f 41/41/21 42/42/21 40/40/20
f 43/43/22 44/44/22 42/42/21
f 45/45/23 46/46/23 44/44/22
f 47/47/24 48/48/24 46/46/23
f 49/49/25 50/50/25 48/48/24
f 51/51/26 52/52/26 50/50/25
f 53/53/27 54/54/27 52/52/26
f 55/55/28 56/56/28 54/54/27
f 57/57/29 58/58/29 56/56/28
f 59/59/30 60/60/30 58/58/29
f 61/61/31 62/62/31 60/60/30
f 63/63/32 64/64/32 62/62/31
f 65/65/33 66/66/33 64/64/32
f 67/67/34 68/68/34 66/66/33
f 69/69/35 70/70/35 68/68/34
f 71/71/36 72/72/36 70/70/35
f 73/73/37 74/74/37 72/72/36
f 75/75/38 76/76/38 74/74/37
f 77/77/39 78/78/39 76/76/38
f 79/79/40 80/80/40 78/78/39
f 81/81/41 82/82/41 80/80/40
f 83/83/42 84/84/42 82/82/41
f 85/85/43 86/86/43 84/84/42
f 87/87/44 88/88/44 86/86/43
f 89/89/45 90/90/45 88/88/44
f 91/91/46 92/92/46 90/90/45
f 93/93/47 94/94/47 92/92/46
f 95/95/48 96/96/48 94/94/47
f 97/97/49 98/98/49 96/96/48
f 99/99/50 100/100/50 98/98/49
f 101/101/51 102/102/51 100/100/50
f 103/103/52 104/104/52 102/102/51
f 105/105/53 106/106/53 104/104/52
f 107/107/54 108/108/54 106/106/53
f 109/109/55 110/110/55 108/108/54
f 111/111/56 112/112/56 110/110/55
f 113/113/57 114/114/57 112/112/56
f 115/115/58 116/116/58 114/114/57
f 117/117/59 118/118/59 116/116/58
f 119/119/60 120/120/60 118/118/59
f 121/121/61 122/122/61 120/120/60
f 123/123/62 124/124/62 122/122/61
f 125/125/63 126/126/63 124/124/62
f 127/128/64 128/129/64 126/126/63
f 1/1/2 2/2/2 128/130/64
