# Blender 3.1.0
# www.blender.org
o Cylinder
v 0.000000 0.000000 -1.000000
v 0.000000 0.788381 -1.000000
v 0.098017 0.000000 -0.995185
v 0.098017 0.788381 -0.995185
v 0.195090 0.000000 -0.980785
v 0.195090 0.788381 -0.980785
v 0.290285 0.000000 -0.956940
v 0.290285 0.788381 -0.956940
v 0.382683 0.000000 -0.923880
v 0.382683 0.788381 -0.923880
v 0.471397 0.000000 -0.881921
v 0.471397 0.788381 -0.881921
v 0.555570 0.000000 -0.831470
v 0.555570 0.788381 -0.831470
v 0.634393 0.000000 -0.773010
v 0.634393 0.788381 -0.773010
v 0.707107 0.000000 -0.707107
v 0.707107 0.788381 -0.707107
v 0.773010 0.000000 -0.634393
v 0.773010 0.788381 -0.634393
v 0.831470 0.000000 -0.555570
v 0.831470 0.788381 -0.555570
v 0.881921 0.000000 -0.471397
v 0.881921 0.788381 -0.471397
v 0.923880 0.000000 -0.382683
v 0.923880 0.788381 -0.382683
v 0.956940 0.000000 -0.290285
v 0.956940 0.788381 -0.290285
v 0.980785 0.000000 -0.195090
v 0.980785 0.788381 -0.195090
v 0.995185 0.000000 -0.098017
v 0.995185 0.788381 -0.098017
v 1.000000 0.000000 0.000000
v 1.000000 0.788381 0.000000
v 0.995185 0.000000 0.098017
v 0.995185 0.788381 0.098017
v 0.980785 0.000000 0.195090
v 0.980785 0.788381 0.195090
v 0.956940 0.000000 0.290285
v 0.956940 0.788381 0.290285
v 0.923880 0.000000 0.382683
v 0.923880 0.788381 0.382683
v 0.881921 0.000000 0.471397
v 0.881921 0.788381 0.471397
v 0.831470 0.000000 0.555570
v 0.831470 0.788381 0.555570
v 0.773010 0.000000 0.634393
v 0.773010 0.788381 0.634393
v 0.707107 0.000000 0.707107
v 0.707107 0.788381 0.707107
v 0.634393 0.000000 0.773010
v 0.634393 0.788381 0.773010
v 0.555570 0.000000 0.831470
v 0.555570 0.788381 0.831470
v 0.471397 0.000000 0.881921
v 0.471397 0.788381 0.881921
v 0.382683 0.000000 0.923880
v 0.382683 0.788381 0.923880
v 0.290285 0.000000 0.956940
v 0.290285 0.788381 0.956940
v 0.195090 0.000000 0.980785
v 0.195090 0.788381 0.980785
v 0.098017 0.000000 0.995185
v 0.098017 0.788381 0.995185
v -0.000000 0.000000 1.000000
v -0.000000 0.788381 1.000000
v -0.098017 0.000000 0.995185
v -0.098017 0.788381 0.995185
v -0.195090 0.000000 0.980785
v -0.195090 0.788381 0.980785
v -0.290285 0.000000 0.956940
v -0.290285 0.788381 0.956940
v -0.382683 0.000000 0.923880
v -0.382683 0.788381 0.923880
v -0.471397 0.000000 0.881921
v -0.471397 0.788381 0.881921
v -0.555570 0.000000 0.831470
v -0.555570 0.788381 0.831470
v -0.634393 0.000000 0.773011
v -0.634393 0.788381 0.773011
v -0.707107 0.000000 0.707107
v -0.707107 0.788381 0.707107
v -0.773010 0.000000 0.634393
v -0.773010 0.788381 0.634393
v -0.831469 0.000000 0.555570
v -0.831469 0.788381 0.555570
v -0.881921 0.000000 0.471397
v -0.881921 0.788381 0.471397
v -0.923880 0.000000 0.382684
v -0.923880 0.788381 0.382684
v -0.956940 0.000000 0.290285
v -0.956940 0.788381 0.290285
v -0.980785 0.000000 0.195090
v -0.980785 0.788381 0.195090
v -0.995185 0.000000 0.098017
v -0.995185 0.788381 0.098017
v -1.000000 0.000000 -0.000000
v -1.000000 0.788381 -0.000000
v -0.995185 0.000000 -0.098017
v -0.995185 0.788381 -0.098017
v -0.980785 0.000000 -0.195090
v -0.980785 0.788381 -0.195090
v -0.956940 0.000000 -0.290285
v -0.956940 0.788381 -0.290285
v -0.923879 0.000000 -0.382684
v -0.923879 0.788381 -0.382684
v -0.881921 0.000000 -0.471397
v -0.881921 0.788381 -0.471397
v -0.831470 0.000000 -0.555570
v -0.831470 0.788381 -0.555570
v -0.773010 0.000000 -0.634393
v -0.773010 0.788381 -0.634393
v -0.707107 0.000000 -0.707107
v -0.707107 0.788381 -0.707107
v -0.634393 0.000000 -0.773011
v -0.634393 0.788381 -0.773011
v -0.555570 0.000000 -0.831470
v -0.555570 0.788381 -0.831470
v -0.471397 0.000000 -0.881921
v -0.471397 0.788381 -0.881921
v -0.382683 0.000000 -0.923880
v -0.382683 0.788381 -0.923880
v -0.290285 0.000000 -0.956940
v -0.290285 0.788381 -0.956940
v -0.195090 0.000000 -0.980785
v -0.195090 0.788381 -0.980785
v -0.098017 0.000000 -0.995185
v -0.098017 0.788381 -0.995185
vn -0.0000 -0.0000 -1.0000
vn 0.0980 -0.0000 -0.9952
vn 0.1951 -0.0000 -0.9808
vn 0.2903 -0.0000 -0.9569
vn 0.3827 -0.0000 -0.9239
vn 0.4714 -0.0000 -0.8819
vn 0.5556 -0.0000 -0.8315
vn 0.6344 -0.0000 -0.7730
vn 0.7071 -0.0000 -0.7071
vn 0.7730 -0.0000 -0.6344
vn 0.8315 -0.0000 -0.5556
vn 0.8819 -0.0000 -0.4714
vn 0.9239 -0.0000 -0.3827
vn 0.9569 -0.0000 -0.2903
vn 0.9808 -0.0000 -0.1951
vn 0.9952 -0.0000 -0.0980
vn 1.0000 -0.0000 -0.0000
vn 0.9952 -0.0000 0.0980
vn 0.9808 -0.0000 0.1951
vn 0.9569 -0.0000 0.2903
vn 0.9239 -0.0000 0.3827
vn 0.8819 -0.0000 0.4714
vn 0.8315 -0.0000 0.5556
vn 0.7730 -0.0000 0.6344
vn 0.7071 -0.0000 0.7071
vn 0.6344 -0.0000 0.7730
vn 0.5556 -0.0000 0.8315
vn 0.4714 -0.0000 0.8819
vn 0.3827 -0.0000 0.9239
vn 0.2903 -0.0000 0.9569
vn 0.1951 -0.0000 0.9808
vn 0.0980 -0.0000 0.9952
vn -0.0000 -0.0000 1.0000
vn -0.0980 -0.0000 0.9952
vn -0.1951 -0.0000 0.9808
vn -0.2903 -0.0000 0.9569
vn -0.3827 -0.0000 0.9239
vn -0.4714 -0.0000 0.8819
vn -0.5556 -0.0000 0.8315
vn -0.6344 -0.0000 0.7730
vn -0.7071 -0.0000 0.7071
vn -0.7730 -0.0000 0.6344
vn -0.8315 -0.0000 0.5556
vn -0.8819 -0.0000 0.4714
vn -0.9239 -0.0000 0.3827
vn -0.9569 -0.0000 0.2903
vn -0.9808 -0.0000 0.1951
vn -0.9952 -0.0000 0.0980
vn -1.0000 -0.0000 -0.0000
vn -0.9952 -0.0000 -0.0980
vn -0.9808 -0.0000 -0.1951
vn -0.9569 -0.0000 -0.2903
vn -0.9239 -0.0000 -0.3827
vn -0.8819 -0.0000 -0.4714
vn -0.8315 -0.0000 -0.5556
vn -0.7730 -0.0000 -0.6344
vn -0.7071 -0.0000 -0.7071
vn -0.6344 -0.0000 -0.7730
vn -0.5556 -0.0000 -0.8315
vn -0.4714 -0.0000 -0.8819
vn -0.3827 -0.0000 -0.9239
vn -0.2903 -0.0000 -0.9569
vn -0.1951 -0.0000 -0.9808
vn -0.0980 -0.0000 -0.9952
vt 0.000036 0.015659
vt 0.125552 0.015660
vt 0.000036 0.031283
vt 0.125552 0.031284
vt 0.000036 0.046907
vt 0.125552 0.046908
vt 0.000036 0.062531
vt 0.125552 0.062532
vt 0.000036 0.078155
vt 0.125552 0.078155
vt 0.000036 0.093779
vt 0.125552 0.093779
vt 0.000036 0.109403
vt 0.125552 0.109403
vt 0.000036 0.125027
vt 0.125552 0.125027
vt 0.000036 0.140651
vt 0.125552 0.140651
vt 0.000036 0.156274
vt 0.125552 0.156275
vt 0.000036 0.171898
vt 0.125552 0.171899
vt 0.000036 0.187522
vt 0.125552 0.187522
vt 0.000036 0.203146
vt 0.125552 0.203146
vt 0.000036 0.218770
vt 0.125552 0.218770
vt 0.000036 0.234394
vt 0.125552 0.234394
vt 0.000036 0.250018
vt 0.125552 0.250018
vt 0.000036 0.265642
vt 0.125552 0.265642
vt 0.000035 0.281266
vt 0.125552 0.281266
vt 0.000035 0.296890
vt 0.125552 0.296890
vt 0.000035 0.312513
vt 0.125552 0.312513
vt 0.000035 0.328137
vt 0.125552 0.328137
vt 0.000035 0.343761
vt 0.125552 0.343761
vt 0.000035 0.359385
vt 0.125552 0.359385
vt 0.000035 0.375009
vt 0.125552 0.375009
vt 0.000035 0.390633
vt 0.125552 0.390633
vt 0.000035 0.406257
vt 0.125552 0.406257
vt 0.000035 0.421881
vt 0.125552 0.421881
vt 0.000035 0.437505
vt 0.125552 0.437504
vt 0.000035 0.453128
vt 0.125552 0.453128
vt 0.000035 0.468752
vt 0.125552 0.468752
vt 0.000035 0.484376
vt 0.125552 0.484376
vt 0.000036 0.500000
vt 0.125552 0.500000
vt 0.000036 0.515624
vt 0.125552 0.515624
vt 0.000036 0.531248
vt 0.125552 0.531248
vt 0.000036 0.546872
vt 0.125552 0.546872
vt 0.000036 0.562496
vt 0.125552 0.562496
vt 0.000036 0.578120
vt 0.125552 0.578119
vt 0.000036 0.593744
vt 0.125552 0.593743
vt 0.000036 0.609368
vt 0.125552 0.609367
vt 0.000036 0.624991
vt 0.125552 0.624991
vt 0.000036 0.640615
vt 0.125552 0.640615
vt 0.000036 0.656239
vt 0.125552 0.656239
vt 0.000036 0.671863
vt 0.125552 0.671863
vt 0.000036 0.687487
vt 0.125552 0.687487
vt 0.000036 0.703111
vt 0.125552 0.703111
vt 0.000036 0.718735
vt 0.125552 0.718735
vt 0.000036 0.734359
vt 0.125552 0.734358
vt 0.000036 0.749982
vt 0.125552 0.749982
vt 0.000036 0.765606
vt 0.125552 0.765606
vt 0.000036 0.781230
vt 0.125552 0.781230
vt 0.000036 0.796854
vt 0.125552 0.796854
vt 0.000036 0.812478
vt 0.125552 0.812478
vt 0.000036 0.828102
vt 0.125552 0.828102
vt 0.000036 0.843726
vt 0.125552 0.843726
vt 0.000036 0.859349
vt 0.125552 0.859350
vt 0.000036 0.874973
vt 0.125552 0.874973
vt 0.000036 0.890597
vt 0.125552 0.890597
vt 0.000036 0.906221
vt 0.125552 0.906221
vt 0.000036 0.921845
vt 0.125552 0.921845
vt 0.000036 0.937469
vt 0.125552 0.937469
vt 0.000036 0.953093
vt 0.125552 0.953093
vt 0.000036 0.968716
vt 0.125552 0.968717
vt 0.000036 0.984340
vt 0.125552 0.984341
vt 0.000036 0.000035
vt 0.000036 0.999964
vt 0.125552 0.999965
vt 0.125552 0.000036
s 1
f 2/2/1 3/3/2 1/1/1
f 4/4/2 5/5/3 3/3/2
f 6/6/3 7/7/4 5/5/3
f 8/8/4 9/9/5 7/7/4
f 10/10/5 11/11/6 9/9/5
f 12/12/6 13/13/7 11/11/6
f 14/14/7 15/15/8 13/13/7
f 16/16/8 17/17/9 15/15/8
f 18/18/9 19/19/10 17/17/9
f 20/20/10 21/21/11 19/19/10
f 22/22/11 23/23/12 21/21/11
f 24/24/12 25/25/13 23/23/12
f 26/26/13 27/27/14 25/25/13
f 28/28/14 29/29/15 27/27/14
f 30/30/15 31/31/16 29/29/15
f 32/32/16 33/33/17 31/31/16
f 34/34/17 35/35/18 33/33/17
f 36/36/18 37/37/19 35/35/18
f 38/38/19 39/39/20 37/37/19
f 40/40/20 41/41/21 39/39/20
f 42/42/21 43/43/22 41/41/21
f 44/44/22 45/45/23 43/43/22
f 46/46/23 47/47/24 45/45/23
f 48/48/24 49/49/25 47/47/24
f 50/50/25 51/51/26 49/49/25
f 52/52/26 53/53/27 51/51/26
f 54/54/27 55/55/28 53/53/27
f 56/56/28 57/57/29 55/55/28
f 58/58/29 59/59/30 57/57/29
f 60/60/30 61/61/31 59/59/30
f 62/62/31 63/63/32 61/61/31
f 64/64/32 65/65/33 63/63/32
f 66/66/33 67/67/34 65/65/33
f 68/68/34 69/69/35 67/67/34
f 70/70/35 71/71/36 69/69/35
f 72/72/36 73/73/37 71/71/36
f 74/74/37 75/75/38 73/73/37
f 76/76/38 77/77/39 75/75/38
f 78/78/39 79/79/40 77/77/39
f 80/80/40 81/81/41 79/79/40
f 82/82/41 83/83/42 81/81/41
f 84/84/42 85/85/43 83/83/42
f 86/86/43 87/87/44 85/85/43
f 88/88/44 89/89/45 87/87/44
f 90/90/45 91/91/46 89/89/45
f 92/92/46 93/93/47 91/91/46
f 94/94/47 95/95/48 93/93/47
f 96/96/48 97/97/49 95/95/48
f 98/98/49 99/99/50 97/97/49
f 100/100/50 101/101/51 99/99/50
f 102/102/51 103/103/52 101/101/51
f 104/104/52 105/105/53 103/103/52
f 106/106/53 107/107/54 105/105/53
f 108/108/54 109/109/55 107/107/54
f 110/110/55 111/111/56 109/109/55
f 112/112/56 113/113/57 111/111/56
f 114/114/57 115/115/58 113/113/57
f 116/116/58 117/117/59 115/115/58
f 118/118/59 119/119/60 117/117/59
f 120/120/60 121/121/61 119/119/60
f 122/122/61 123/123/62 121/121/61
f 124/124/62 125/125/63 123/123/62
f 126/126/63 127/128/64 125/125/63
f 128/130/64 1/1/1 127/127/64
f 2/2/1 4/4/2 3/3/2
f 4/4/2 6/6/3 5/5/3
f 6/6/3 8/8/4 7/7/4
f 8/8/4 10/10/5 9/9/5
f 10/10/5 12/12/6 11/11/6
f 12/12/6 14/14/7 13/13/7
f 14/14/7 16/16/8 15/15/8
f 16/16/8 18/18/9 17/17/9
f 18/18/9 20/20/10 19/19/10
f 20/20/10 22/22/11 21/21/11
f 22/22/11 24/24/12 23/23/12
f 24/24/12 26/26/13 25/25/13
f 26/26/13 28/28/14 27/27/14
f 28/28/14 30/30/15 29/29/15
f 30/30/15 32/32/16 31/31/16
f 32/32/16 34/34/17 33/33/17
f 34/34/17 36/36/18 35/35/18
f 36/36/18 38/38/19 37/37/19
f 38/38/19 40/40/20 39/39/20
f 40/40/20 42/42/21 41/41/21
f 42/42/21 44/44/22 43/43/22
f 44/44/22 46/46/23 45/45/23
f 46/46/23 48/48/24 47/47/24
f 48/48/24 50/50/25 49/49/25
f 50/50/25 52/52/26 51/51/26
f 52/52/26 54/54/27 53/53/27
f 54/54/27 56/56/28 55/55/28
f 56/56/28 58/58/29 57/57/29
f 58/58/29 60/60/30 59/59/30
f 60/60/30 62/62/31 61/61/31
f 62/62/31 64/64/32 63/63/32
f 64/64/32 66/66/33 65/65/33
f 66/66/33 68/68/34 67/67/34
f 68/68/34 70/70/35 69/69/35
f 70/70/35 72/72/36 71/71/36
f 72/72/36 74/74/37 73/73/37
f 74/74/37 76/76/38 75/75/38
f 76/76/38 78/78/39 77/77/39
f 78/78/39 80/80/40 79/79/40
f 80/80/40 82/82/41 81/81/41
f 82/82/41 84/84/42 83/83/42
f 84/84/42 86/86/43 85/85/43
f 86/86/43 88/88/44 87/87/44
f 88/88/44 90/90/45 89/89/45
f 90/90/45 92/92/46 91/91/46
f 92/92/46 94/94/47 93/93/47
f 94/94/47 96/96/48 95/95/48
f 96/96/48 98/98/49 97/97/49
f 98/98/49 100/100/50 99/99/50
f 100/100/50 102/102/51 101/101/51
f 102/102/51 104/104/52 103/103/52
f 104/104/52 106/106/53 105/105/53
f 106/106/53 108/108/54 107/107/54
f 108/108/54 110/110/55 109/109/55
f 110/110/55 112/112/56 111/111/56
f 112/112/56 114/114/57 113/113/57
f 114/114/57 116/116/58 115/115/58
f 116/116/58 118/118/59 117/117/59
f 118/118/59 120/120/60 119/119/60
f 120/120/60 122/122/61 121/121/61
f 122/122/61 124/124/62 123/123/62
f 124/124/62 126/126/63 125/125/63
f 126/126/63 128/129/64 127/128/64
f 128/130/64 2/2/1 1/1/1
