# Blender 3.3.1
# www.blender.org
o pipes
v -1.938859 0.307496 -0.300000
v 1.938859 0.307495 -0.300000
v -1.938859 0.301766 -0.317634
v 1.938859 0.301766 -0.317634
v -1.938859 0.286766 -0.328532
v 1.938859 0.286766 -0.328532
v -1.938859 0.268225 -0.328532
v 1.938859 0.268225 -0.328532
v -1.938859 0.253225 -0.317634
v 1.938859 0.253225 -0.317634
v -1.938859 0.247495 -0.300000
v 1.938859 0.247495 -0.300000
v -1.938860 0.253225 -0.282366
v 1.938860 0.253225 -0.282366
v -1.938859 0.268225 -0.271468
v 1.938859 0.268225 -0.271468
v -1.938859 0.286766 -0.271468
v 1.938859 0.286766 -0.271468
v -1.938860 0.301766 -0.282366
v 1.938860 0.301766 -0.282366
v -1.938860 0.307496 0.000000
v 1.938860 0.307495 0.000000
v -1.938859 0.301766 -0.017634
v 1.938859 0.301766 -0.017634
v -1.938859 0.286766 -0.028532
v 1.938859 0.286766 -0.028532
v -1.938859 0.268225 -0.028532
v 1.938859 0.268225 -0.028532
v -1.938859 0.253225 -0.017634
v 1.938859 0.253225 -0.017634
v -1.938860 0.247495 0.000000
v 1.938860 0.247495 0.000000
v -1.938859 0.253225 0.017634
v 1.938859 0.253225 0.017634
v -1.938859 0.268225 0.028532
v 1.938859 0.268225 0.028532
v -1.938859 0.286766 0.028532
v 1.938859 0.286766 0.028532
v -1.938859 0.301766 0.017634
v 1.938859 0.301766 0.017634
v -1.938859 0.307496 0.300000
v 1.938859 0.307495 0.300000
v -1.938859 0.301766 0.282367
v 1.938859 0.301766 0.282367
v -1.938859 0.286766 0.271468
v 1.938859 0.286766 0.271468
v -1.938859 0.268225 0.271468
v 1.938859 0.268225 0.271468
v -1.938859 0.253225 0.282367
v 1.938859 0.253225 0.282367
v -1.938859 0.247495 0.300000
v 1.938859 0.247495 0.300000
v -1.938860 0.253225 0.317634
v 1.938860 0.253225 0.317634
v -1.938859 0.268225 0.328532
v 1.938859 0.268225 0.328532
v -1.938859 0.286766 0.328532
v 1.938859 0.286766 0.328532
v -1.938860 0.301766 0.317634
v 1.938860 0.301766 0.317634
v -0.300000 0.307496 1.938860
v -0.300000 0.307495 -1.938859
v -0.317634 0.301766 1.938860
v -0.317634 0.301766 -1.938859
v -0.328532 0.286766 1.938860
v -0.328532 0.286766 -1.938859
v -0.328532 0.268225 1.938860
v -0.328532 0.268225 -1.938859
v -0.317634 0.253225 1.938860
v -0.317634 0.253225 -1.938859
v -0.300000 0.247495 1.938860
v -0.300000 0.247495 -1.938859
v -0.282366 0.253225 1.938860
v -0.282367 0.253225 -1.938859
v -0.271468 0.268225 1.938860
v -0.271468 0.268225 -1.938859
v -0.271468 0.286766 1.938860
v -0.271468 0.286766 -1.938859
v -0.282366 0.301766 1.938860
v -0.282367 0.301766 -1.938859
v 0.000000 0.307496 1.938860
v -0.000000 0.307495 -1.938859
v -0.017634 0.301766 1.938860
v -0.017634 0.301766 -1.938859
v -0.028532 0.286766 1.938860
v -0.028532 0.286766 -1.938859
v -0.028532 0.268225 1.938860
v -0.028532 0.268225 -1.938859
v -0.017634 0.253225 1.938860
v -0.017634 0.253225 -1.938859
v 0.000000 0.247495 1.938860
v -0.000000 0.247495 -1.938859
v 0.017634 0.253225 1.938860
v 0.017633 0.253225 -1.938859
v 0.028532 0.268225 1.938860
v 0.028532 0.268225 -1.938859
v 0.028532 0.286766 1.938860
v 0.028532 0.286766 -1.938859
v 0.017634 0.301766 1.938860
v 0.017633 0.301766 -1.938859
v 0.300000 0.307496 1.938860
v 0.300000 0.307495 -1.938859
v 0.282367 0.301766 1.938860
v 0.282366 0.301766 -1.938859
v 0.271468 0.286766 1.938860
v 0.271468 0.286766 -1.938859
v 0.271468 0.268225 1.938860
v 0.271468 0.268225 -1.938859
v 0.282367 0.253225 1.938860
v 0.282366 0.253225 -1.938859
v 0.300000 0.247495 1.938860
v 0.300000 0.247495 -1.938859
v 0.317634 0.253225 1.938860
v 0.317633 0.253225 -1.938859
v 0.328532 0.268225 1.938860
v 0.328531 0.268225 -1.938859
v 0.328532 0.286766 1.938860
v 0.328531 0.286766 -1.938859
v 0.317634 0.301766 1.938860
v 0.317633 0.301766 -1.938859
vn -0.0000 0.9511 -0.3090
vn -0.0000 0.5878 -0.8090
vn -0.0000 -0.0000 -1.0000
vn -0.0000 -0.5878 -0.8090
vn -0.0000 -0.9511 -0.3090
vn -0.0000 -0.9511 0.3090
vn -0.0000 -0.5878 0.8090
vn -0.0000 -0.0000 1.0000
vn -0.0000 0.5878 0.8090
vn -0.0000 0.9511 0.3090
vn -0.3090 0.9511 -0.0000
vn -0.8090 0.5878 -0.0000
vn -1.0000 -0.0000 -0.0000
vn -0.8090 -0.5878 -0.0000
vn -0.3090 -0.9511 -0.0000
vn 0.3090 -0.9511 -0.0000
vn 0.8090 -0.5878 -0.0000
vn 1.0000 -0.0000 -0.0000
vn 0.8090 0.5878 -0.0000
vn 0.3090 0.9511 -0.0000
vt 0.625000 -1.646523
vt 0.375000 -1.646523
vt 0.625000 2.646523
vt 0.375000 2.646523
vt 0.600000 -1.646523
vt 0.600000 2.646523
vt 0.575000 -1.646523
vt 0.575000 2.646523
vt 0.550000 -1.646523
vt 0.550000 2.646523
vt 0.525000 -1.646523
vt 0.525000 2.646523
vt 0.500000 -1.646523
vt 0.500000 2.646523
vt 0.475000 -1.646523
vt 0.475000 2.646523
vt 0.450000 -1.646523
vt 0.450000 2.646523
vt 0.425000 -1.646523
vt 0.425000 2.646523
vt 0.400000 -1.646523
vt 0.400000 2.646523
vt 0.375000 -1.646523
vt 0.625000 -1.646523
vt 0.625000 2.646523
vt 0.375000 2.646523
vt 0.600000 -1.646523
vt 0.600000 2.646523
vt 0.575000 -1.646523
vt 0.575000 2.646523
vt 0.550000 -1.646523
vt 0.550000 2.646523
vt 0.525000 -1.646523
vt 0.525000 2.646523
vt 0.500000 -1.646523
vt 0.500000 2.646523
vt 0.475000 -1.646523
vt 0.475000 2.646523
vt 0.450000 -1.646523
vt 0.450000 2.646523
vt 0.425000 -1.646523
vt 0.425000 2.646523
vt 0.400000 -1.646523
vt 0.400000 2.646523
vt 0.625000 -1.646523
vt 0.375000 -1.646523
vt 0.625000 2.646523
vt 0.375000 2.646523
vt 0.600000 -1.646523
vt 0.600000 2.646523
vt 0.575000 -1.646523
vt 0.575000 2.646523
vt 0.550000 -1.646523
vt 0.550000 2.646523
vt 0.525000 -1.646523
vt 0.525000 2.646523
vt 0.500000 -1.646523
vt 0.500000 2.646523
vt 0.475000 -1.646523
vt 0.475000 2.646523
vt 0.450000 -1.646523
vt 0.450000 2.646523
vt 0.425000 -1.646523
vt 0.425000 2.646523
vt 0.400000 -1.646523
vt 0.400000 2.646523
vt 0.625000 -1.646523
vt 0.375000 -1.646523
vt 0.625000 2.646523
vt 0.375000 2.646523
vt 0.600000 -1.646523
vt 0.600000 2.646523
vt 0.575000 -1.646523
vt 0.575000 2.646523
vt 0.550000 -1.646523
vt 0.550000 2.646523
vt 0.525000 -1.646523
vt 0.525000 2.646523
vt 0.500000 -1.646523
vt 0.500000 2.646523
vt 0.475000 -1.646523
vt 0.475000 2.646523
vt 0.450000 -1.646523
vt 0.450000 2.646523
vt 0.425000 -1.646523
vt 0.425000 2.646523
vt 0.400000 -1.646523
vt 0.400000 2.646523
vt 0.625000 -1.646523
vt 0.375000 -1.646523
vt 0.625000 2.646523
vt 0.375000 2.646523
vt 0.600000 -1.646523
vt 0.600000 2.646523
vt 0.575000 -1.646523
vt 0.575000 2.646523
vt 0.550000 -1.646523
vt 0.550000 2.646523
vt 0.525000 -1.646523
vt 0.525000 2.646523
vt 0.500000 -1.646523
vt 0.500000 2.646523
vt 0.475000 -1.646523
vt 0.475000 2.646523
vt 0.450000 -1.646523
vt 0.450000 2.646523
vt 0.425000 -1.646523
vt 0.425000 2.646523
vt 0.400000 -1.646523
vt 0.400000 2.646523
vt 0.625000 -1.646523
vt 0.375000 -1.646523
vt 0.625000 2.646523
vt 0.375000 2.646523
vt 0.600000 -1.646523
vt 0.600000 2.646523
vt 0.575000 -1.646523
vt 0.575000 2.646523
vt 0.550000 -1.646523
vt 0.550000 2.646523
vt 0.525000 -1.646523
vt 0.525000 2.646523
vt 0.500000 -1.646523
vt 0.500000 2.646523
vt 0.475000 -1.646523
vt 0.475000 2.646523
vt 0.450000 -1.646523
vt 0.450000 2.646523
vt 0.425000 -1.646523
vt 0.425000 2.646523
vt 0.400000 -1.646523
vt 0.400000 2.646523
s 0
f 2/3/1 3/5/1 1/1/1
f 4/6/2 5/7/2 3/5/2
f 6/8/3 7/9/3 5/7/3
f 8/10/4 9/11/4 7/9/4
f 10/12/5 11/13/5 9/11/5
f 12/14/6 13/15/6 11/13/6
f 14/16/7 15/17/7 13/15/7
f 16/18/8 17/19/8 15/17/8
f 18/20/9 19/21/9 17/19/9
f 20/22/10 1/2/10 19/21/10
f 21/24/1 24/28/1 23/27/1
f 24/28/2 25/29/2 23/27/2
f 26/30/3 27/31/3 25/29/3
f 28/32/4 29/33/4 27/31/4
f 30/34/5 31/35/5 29/33/5
f 31/35/6 34/38/6 33/37/6
f 34/38/7 35/39/7 33/37/7
f 36/40/8 37/41/8 35/39/8
f 38/42/9 39/43/9 37/41/9
f 39/43/10 22/26/10 21/23/10
f 42/47/1 43/49/1 41/45/1
f 44/50/2 45/51/2 43/49/2
f 46/52/3 47/53/3 45/51/3
f 47/53/4 50/56/4 49/55/4
f 50/56/5 51/57/5 49/55/5
f 52/58/6 53/59/6 51/57/6
f 54/60/7 55/61/7 53/59/7
f 56/62/8 57/63/8 55/61/8
f 58/64/9 59/65/9 57/63/9
f 60/66/10 41/46/10 59/65/10
f 62/69/11 63/71/11 61/67/11
f 64/72/12 65/73/12 63/71/12
f 66/74/13 67/75/13 65/73/13
f 68/76/14 69/77/14 67/75/14
f 70/78/15 71/79/15 69/77/15
f 72/80/16 73/81/16 71/79/16
f 73/81/17 76/84/17 75/83/17
f 76/84/18 77/85/18 75/83/18
f 78/86/19 79/87/19 77/85/19
f 80/88/20 61/68/20 79/87/20
f 82/91/11 83/93/11 81/89/11
f 84/94/12 85/95/12 83/93/12
f 86/96/13 87/97/13 85/95/13
f 88/98/14 89/99/14 87/97/14
f 90/100/15 91/101/15 89/99/15
f 91/101/16 94/104/16 93/103/16
f 94/104/17 95/105/17 93/103/17
f 96/106/18 97/107/18 95/105/18
f 98/108/19 99/109/19 97/107/19
f 100/110/20 81/90/20 99/109/20
f 102/113/11 103/115/11 101/111/11
f 104/116/12 105/117/12 103/115/12
f 106/118/13 107/119/13 105/117/13
f 108/120/14 109/121/14 107/119/14
f 110/122/15 111/123/15 109/121/15
f 112/124/16 113/125/16 111/123/16
f 114/126/17 115/127/17 113/125/17
f 116/128/18 117/129/18 115/127/18
f 118/130/19 119/131/19 117/129/19
f 120/132/20 101/112/20 119/131/20
f 2/3/1 4/6/1 3/5/1
f 4/6/2 6/8/2 5/7/2
f 6/8/3 8/10/3 7/9/3
f 8/10/4 10/12/4 9/11/4
f 10/12/5 12/14/5 11/13/5
f 12/14/6 14/16/6 13/15/6
f 14/16/7 16/18/7 15/17/7
f 16/18/8 18/20/8 17/19/8
f 18/20/9 20/22/9 19/21/9
f 20/22/10 2/4/10 1/2/10
f 21/24/1 22/25/1 24/28/1
f 24/28/2 26/30/2 25/29/2
f 26/30/3 28/32/3 27/31/3
f 28/32/4 30/34/4 29/33/4
f 30/34/5 32/36/5 31/35/5
f 31/35/6 32/36/6 34/38/6
f 34/38/7 36/40/7 35/39/7
f 36/40/8 38/42/8 37/41/8
f 38/42/9 40/44/9 39/43/9
f 39/43/10 40/44/10 22/26/10
f 42/47/1 44/50/1 43/49/1
f 44/50/2 46/52/2 45/51/2
f 46/52/3 48/54/3 47/53/3
f 47/53/4 48/54/4 50/56/4
f 50/56/5 52/58/5 51/57/5
f 52/58/6 54/60/6 53/59/6
f 54/60/7 56/62/7 55/61/7
f 56/62/8 58/64/8 57/63/8
f 58/64/9 60/66/9 59/65/9
f 60/66/10 42/48/10 41/46/10
f 62/69/11 64/72/11 63/71/11
f 64/72/12 66/74/12 65/73/12
f 66/74/13 68/76/13 67/75/13
f 68/76/14 70/78/14 69/77/14
f 70/78/15 72/80/15 71/79/15
f 72/80/16 74/82/16 73/81/16
f 73/81/17 74/82/17 76/84/17
f 76/84/18 78/86/18 77/85/18
f 78/86/19 80/88/19 79/87/19
f 80/88/20 62/70/20 61/68/20
f 82/91/11 84/94/11 83/93/11
f 84/94/12 86/96/12 85/95/12
f 86/96/13 88/98/13 87/97/13
f 88/98/14 90/100/14 89/99/14
f 90/100/15 92/102/15 91/101/15
f 91/101/16 92/102/16 94/104/16
f 94/104/17 96/106/17 95/105/17
f 96/106/18 98/108/18 97/107/18
f 98/108/19 100/110/19 99/109/19
f 100/110/20 82/92/20 81/90/20
f 102/113/11 104/116/11 103/115/11
f 104/116/12 106/118/12 105/117/12
f 106/118/13 108/120/13 107/119/13
f 108/120/14 110/122/14 109/121/14
f 110/122/15 112/124/15 111/123/15
f 112/124/16 114/126/16 113/125/16
f 114/126/17 116/128/17 115/127/17
f 116/128/18 118/130/18 117/129/18
f 118/130/19 120/132/19 119/131/19
f 120/132/20 102/114/20 101/112/20
